<svg xmlns="http://www.w3.org/2000/svg" xmlns:xlink="http://www.w3.org/1999/xlink" width="738" height="469" fill="none"><style><![CDATA[.B{fill:#62839b}.C{fill:#fff}.D{fill-rule:evenodd}.E{stroke:#fff}.F{stroke:#62839b}.G{stroke-width:.5}.H{stroke-width:4}.I{fill:#5dcbc4}.J{fill:#0a3d62}.K{fill:#e0e0e0}.L{fill:#17b5ab}.M{fill:#718093}.N{fill:#e8ebee}.O{fill:#ff8f89}.P{fill:#2a5699}.Q{fill:#daf3f2}.R{stroke:#17b5ab}.S{color-interpolation-filters:sRGB}.T{flood-opacity:0}]]></style><g filter="url(#G)"><rect x="246.436" y="45.5" width="449.065" height="328.29" rx="4.5" fill="#fbfbfb" stroke="#e8ebee"/><path d="M696 87.323H245.936V86.3H696v1.032z" class="D N"/><path d="M269.063 71.388h2.052v-7.22h2.482v-1.695h-7.016v1.695h2.482v7.22z" class="B"/><path d="M276.737 71.552c1.733 0 3.342-1.3 3.342-3.555s-1.61-3.555-3.342-3.555c-1.747 0-3.355 1.3-3.355 3.555s1.608 3.555 3.355 3.555zm0-1.627c-.846 0-1.262-.752-1.262-1.928s.416-1.928 1.262-1.928c.832 0 1.262.752 1.262 1.928s-.43 1.928-1.262 1.928z" class="B"/><path d="M281.475 73.903h2.038V71.92l-.07-1.08c.485.45 1.04.71 1.636.71 1.484 0 2.898-1.34 2.898-3.664 0-2.092-1.026-3.445-2.7-3.445-.72 0-1.414.356-1.955.834h-.056l-.138-.67h-1.664v9.297zm3.134-3.992c-.347 0-.735-.11-1.096-.437v-2.775c.402-.424.763-.615 1.18-.615.818 0 1.192.615 1.192 1.832 0 1.395-.568 1.996-1.275 1.996z" class="B"/><path d="M294.487 66.876l.707-2.87h.056l.735 2.87.208.82h-1.928l.222-.82zm-3.272 4.512h2.08l.554-2.12h2.76l.555 2.12h2.163l-2.828-8.914h-2.455l-2.828 8.914z" class="B"/><path d="M300.148 73.903h2.038V71.92l-.07-1.08c.485.45 1.04.71 1.636.71 1.483 0 2.898-1.34 2.898-3.664 0-2.092-1.026-3.445-2.7-3.445-.72 0-1.415.356-1.955.834h-.056l-.14-.67h-1.663v9.297zm3.133-3.992c-.346 0-.735-.11-1.095-.437v-2.775c.402-.424.762-.615 1.178-.615.82 0 1.193.615 1.193 1.832 0 1.395-.57 1.996-1.276 1.996z" class="B"/><path d="M308.096 73.903h2.038V71.92l-.07-1.08c.485.45 1.04.71 1.636.71 1.484 0 2.898-1.34 2.898-3.664 0-2.092-1.026-3.445-2.7-3.445-.72 0-1.414.356-1.955.834h-.055l-.14-.67h-1.664v9.297zm3.134-3.992c-.347 0-.735-.11-1.096-.437v-2.775c.402-.424.763-.615 1.18-.615.818 0 1.192.615 1.192 1.832 0 1.395-.568 1.996-1.275 1.996z" class="B"/><path d="M318 71.552c1.844 0 2.83-.957 2.83-2.188 0-1.244-.985-1.723-1.858-2.037-.707-.26-1.345-.424-1.345-.86 0-.342.25-.533.776-.533.485 0 .957.22 1.456.574l.915-1.203c-.596-.437-1.372-.86-2.426-.86-1.595 0-2.635.86-2.635 2.12 0 1.12.985 1.682 1.817 1.996.707.273 1.4.48 1.4.93 0 .355-.263.574-.873.574-.583 0-1.15-.246-1.775-.71l-.915 1.258a4.48 4.48 0 0 0 2.634.943z" class="B"/><path d="M326.633 71.552c.777 0 1.415-.355 1.997-.86h.055l.14.697h1.664v-3.883c0-2.078-.97-3.063-2.732-3.063-1.08 0-2.066.37-2.94.89l.735 1.326c.665-.383 1.234-.615 1.816-.615.75 0 1.04.383 1.082.984-2.718.273-3.87 1.053-3.87 2.475 0 1.148.8 2.05 2.052 2.05zm.694-1.56c-.486 0-.79-.205-.79-.643 0-.52.472-.93 1.914-1.12v1.19c-.36.355-.666.574-1.123.574z" class="B"/><path d="M332.212 71.388h2.038v-4.58c.444-.424.763-.656 1.276-.656.582 0 .846.3.846 1.285v3.95h2.038v-4.21c0-1.695-.638-2.734-2.135-2.734-.93 0-1.623.48-2.205 1.025h-.055l-.14-.86h-1.664v6.78z" class="B"/><path d="M342.6 71.552c.666 0 1.345-.355 1.83-.834h.056l.138.67h1.664v-9.584h-2.038v2.31l.083 1.04c-.47-.437-.93-.71-1.69-.71-1.456 0-2.857 1.34-2.857 3.555s1.1 3.555 2.815 3.555zm.527-1.64c-.8 0-1.248-.602-1.248-1.942 0-1.285.582-1.887 1.234-1.887a1.64 1.64 0 0 1 1.137.438v2.775c-.333.45-.68.615-1.123.615z" class="B"/><path d="M354.618 71.388h2.523l.846-4.047.374-2.065h.056l.36 2.065.888 4.047h2.565l1.608-8.914h-1.955l-.624 4.17-.374 2.817h-.056l-.54-2.817-.97-4.17h-1.733l-.97 4.17-.54 2.817h-.055l-.36-2.817-.623-4.17h-2.094l1.678 8.914z" class="B"/><use xlink:href="#J" class="B"/><path d="M375.708 71.552c1.484 0 2.898-1.34 2.898-3.678 0-2.078-1.04-3.432-2.704-3.432-.638 0-1.29.287-1.816.752l.055-1.04v-2.352h-2.038v9.584h1.595l.166-.725h.055c.54.588 1.18.89 1.79.89zm-.47-1.64c-.347 0-.735-.11-1.096-.437v-2.775c.388-.424.763-.615 1.18-.615.818 0 1.192.615 1.192 1.832 0 1.395-.568 1.996-1.275 1.996z" class="B"/><path d="M382.008 71.552c1.844 0 2.83-.957 2.83-2.188 0-1.244-.985-1.723-1.858-2.037-.707-.26-1.345-.424-1.345-.86 0-.342.25-.533.776-.533.485 0 .957.22 1.456.574l.915-1.203c-.596-.437-1.373-.86-2.426-.86-1.595 0-2.635.86-2.635 2.12 0 1.12.985 1.682 1.817 1.996.707.273 1.4.48 1.4.93 0 .355-.263.574-.873.574-.583 0-1.15-.246-1.775-.71l-.915 1.258a4.48 4.48 0 0 0 2.634.943z" class="B"/><path d="M386.13 71.388h2.038v-6.78h-2.038v6.78zm1.012-7.78c.694 0 1.18-.437 1.18-1.053s-.485-1.04-1.18-1.04c-.68 0-1.178.424-1.178 1.04s.5 1.053 1.178 1.053z" class="B"/><path d="M392.612 71.552c.665 0 1.164-.137 1.525-.246l-.32-1.463a1.97 1.97 0 0 1-.652.137c-.54 0-.887-.314-.887-1.08v-2.72h1.65v-1.572h-1.65V62.8h-1.692l-.236 1.805-1.053.082v1.5h.942v2.748c0 1.572.666 2.625 2.372 2.625z" class="B"/><use xlink:href="#J" x="30.101" class="B"/><path d="M404.228 71.552c1.845 0 2.83-.957 2.83-2.188 0-1.244-.984-1.723-1.858-2.037-.707-.26-1.345-.424-1.345-.86 0-.342.25-.533.776-.533.486 0 .957.22 1.456.574l.916-1.203c-.597-.437-1.373-.86-2.427-.86-1.595 0-2.634.86-2.634 2.12 0 1.12.984 1.682 1.816 1.996.707.273 1.4.48 1.4.93 0 .355-.263.574-.873.574-.583 0-1.15-.246-1.775-.71l-.915 1.258a4.48 4.48 0 0 0 2.634.943z" class="B"/><path d="M415.065 71.552c1.18 0 2.177-.45 2.926-1.313l-1.082-1.258c-.443.465-1.026.834-1.76.834-1.33 0-2.2-1.066-2.2-2.898 0-1.79.984-2.87 2.218-2.87.652 0 1.137.3 1.595.71l1.08-1.285c-.6-.615-1.553-1.162-2.717-1.162-2.288 0-4.27 1.723-4.27 4.676 0 2.994 1.913 4.567 4.2 4.567z" class="B"/><path d="M419.198 71.388h2.038v-4.58c.444-.424.762-.656 1.275-.656.583 0 .846.3.846 1.285v3.95h2.04v-4.21c0-1.695-.638-2.734-2.136-2.734-.93 0-1.608.48-2.12.93l.097-1.217v-2.352h-2.038v9.584z" class="B"/><path d="M428.852 71.552c.777 0 1.414-.355 1.997-.86h.055l.14.697h1.664v-3.883c0-2.078-.97-3.063-2.732-3.063-1.08 0-2.066.37-2.94.89l.735 1.326c.665-.383 1.234-.615 1.816-.615.75 0 1.04.383 1.082.984-2.718.273-3.87 1.053-3.87 2.475 0 1.148.8 2.05 2.052 2.05zm.693-1.56c-.485 0-.8-.205-.8-.643 0-.52.47-.93 1.914-1.12v1.19c-.36.355-.666.574-1.124.574z" class="B"/><path d="M434.43 71.388h2.038V67.45c.36-.916.998-1.244 1.512-1.244.29 0 .5.04.748.11l.333-1.736c-.194-.082-.43-.137-.818-.137-.707 0-1.456.438-1.955 1.354h-.056l-.138-1.19h-1.664v6.78z" class="B"/><path d="M442.604 71.552c.665 0 1.165-.137 1.525-.246l-.32-1.463a1.97 1.97 0 0 1-.652.137c-.54 0-.887-.314-.887-1.08v-2.72h1.65v-1.572h-1.65V62.8h-1.692l-.235 1.805-1.054.082v1.5h.943v2.748c0 1.572.665 2.625 2.37 2.625z" class="B"/><path d="M476.058 214.58l81.125-7.473c2.18 19.095-2.454 38.36-13.1 54.386-10.824 16.295-27.144 28.158-45.984 33.427s-38.945 3.59-56.652-4.725a81.58 81.58 0 0 1-39.411-39.7l74.022-35.915z" stroke-width="2" class="E O"/><mask id="A" class="C"><use xlink:href="#K"/></mask><use xlink:href="#K" mask="url(#A)" class="E H O"/><path d="M513.254 334.677v-7.848h4.74v1.176h-3.348v2.22h2.856v1.176h-2.856v3.276h-1.392zm6.992.144c-.52 0-.94-.156-1.26-.468-.32-.32-.48-.74-.48-1.26 0-.312.064-.588.192-.828.136-.248.344-.46.624-.636.288-.176.648-.324 1.08-.444.44-.12.964-.212 1.572-.276-.008-.152-.032-.296-.072-.432a.85.85 0 0 0-.18-.372.73.73 0 0 0-.324-.252 1.18 1.18 0 0 0-.504-.096c-.288 0-.572.056-.852.168-.272.112-.54.248-.804.408l-.504-.924c.328-.208.696-.388 1.104-.54a3.75 3.75 0 0 1 1.32-.228c.736 0 1.284.22 1.644.66.368.432.552 1.06.552 1.884v3.492h-1.14l-.096-.648h-.048c-.264.224-.548.412-.852.564-.296.152-.62.228-.972.228zm.444-1.08c.24 0 .456-.056.648-.168.2-.112.412-.272.636-.48v-1.32a6.3 6.3 0 0 0-1.008.192c-.272.08-.492.172-.66.276-.168.096-.288.208-.36.336a.82.82 0 0 0-.108.408c0 .264.08.456.24.576s.364.18.612.18zm6.775 1.08c-.4 0-.776-.068-1.128-.204a2.54 2.54 0 0 1-.9-.6c-.256-.264-.456-.588-.6-.972s-.216-.82-.216-1.308.08-.924.24-1.308.376-.708.648-.972a2.76 2.76 0 0 1 .936-.6 3.01 3.01 0 0 1 1.128-.216c.384 0 .712.064.984.192.28.128.528.284.744.468l-.672.9a2.04 2.04 0 0 0-.48-.312c-.152-.08-.32-.12-.504-.12-.48 0-.868.18-1.164.54-.296.352-.444.828-.444 1.428 0 .592.144 1.068.432 1.428a1.42 1.42 0 0 0 1.14.528c.232 0 .448-.048.648-.144.208-.104.396-.224.564-.36l.564.912a2.92 2.92 0 0 1-.924.54 2.88 2.88 0 0 1-.996.18zm5.3 0c-.408 0-.788-.068-1.14-.204a2.78 2.78 0 0 1-.924-.612c-.264-.264-.472-.584-.624-.96-.144-.384-.216-.82-.216-1.308 0-.48.076-.912.228-1.296a3.03 3.03 0 0 1 .6-.972c.256-.264.548-.468.876-.612s.664-.216 1.008-.216c.4 0 .752.068 1.056.204s.556.328.756.576a2.48 2.48 0 0 1 .468.888c.104.344.156.72.156 1.128a2.91 2.91 0 0 1-.024.384c-.008.12-.02.216-.036.288h-3.744c.064.528.248.936.552 1.224.312.28.708.42 1.188.42.256 0 .492-.036.708-.108a3.36 3.36 0 0 0 .66-.324l.468.864c-.28.184-.592.336-.936.456s-.704.18-1.08.18zm-1.572-3.648h2.616c0-.456-.1-.812-.3-1.068-.192-.264-.492-.396-.9-.396-.352 0-.66.124-.924.372s-.428.612-.492 1.092zm8 3.648a1.98 1.98 0 0 1-.828-.192 3.02 3.02 0 0 1-.78-.576h-.036l-.12.624h-1.092v-8.472h1.38v2.184l-.036.984a3.49 3.49 0 0 1 .804-.528c.296-.136.596-.204.9-.204a2.17 2.17 0 0 1 .984.216c.288.136.532.336.732.6a2.69 2.69 0 0 1 .456.936c.104.368.156.78.156 1.236 0 .504-.072.956-.216 1.356-.136.392-.32.724-.552.996s-.5.48-.804.624a2.19 2.19 0 0 1-.948.216zm-.288-1.14c.392 0 .72-.168.984-.504.264-.344.396-.852.396-1.524 0-.592-.1-1.052-.3-1.38s-.524-.492-.972-.492c-.416 0-.848.22-1.296.66v2.748c.208.184.412.312.612.384a1.77 1.77 0 0 0 .576.108zm6.606 1.14a2.79 2.79 0 0 1-1.056-.204 2.69 2.69 0 0 1-.9-.6 2.92 2.92 0 0 1-.612-.972c-.152-.384-.228-.82-.228-1.308s.076-.924.228-1.308a2.92 2.92 0 0 1 .612-.972 2.69 2.69 0 0 1 .9-.6c.336-.144.688-.216 1.056-.216s.72.072 1.056.216a2.54 2.54 0 0 1 .9.6 2.92 2.92 0 0 1 .612.972c.16.384.24.82.24 1.308s-.08.924-.24 1.308a2.92 2.92 0 0 1-.612.972 2.54 2.54 0 0 1-.9.6 2.79 2.79 0 0 1-1.056.204zm0-1.128a1.18 1.18 0 0 0 1.02-.528c.248-.36.372-.836.372-1.428 0-.6-.124-1.076-.372-1.428-.248-.36-.588-.54-1.02-.54s-.772.18-1.02.54c-.24.352-.36.828-.36 1.428 0 .592.12 1.068.36 1.428a1.18 1.18 0 0 0 1.02.528zm6.586 1.128a2.79 2.79 0 0 1-1.056-.204 2.69 2.69 0 0 1-.9-.6 2.92 2.92 0 0 1-.612-.972c-.152-.384-.228-.82-.228-1.308s.076-.924.228-1.308a2.92 2.92 0 0 1 .612-.972 2.69 2.69 0 0 1 .9-.6c.336-.144.688-.216 1.056-.216s.72.072 1.056.216a2.54 2.54 0 0 1 .9.6 2.92 2.92 0 0 1 .612.972c.16.384.24.82.24 1.308s-.08.924-.24 1.308a2.92 2.92 0 0 1-.612.972 2.54 2.54 0 0 1-.9.6 2.79 2.79 0 0 1-1.056.204zm0-1.128a1.18 1.18 0 0 0 1.02-.528c.248-.36.372-.836.372-1.428 0-.6-.124-1.076-.372-1.428-.248-.36-.588-.54-1.02-.54s-.772.18-1.02.54c-.24.352-.36.828-.36 1.428 0 .592.12 1.068.36 1.428a1.18 1.18 0 0 0 1.02.528zm4.174.984v-8.472h1.356v5.292h.036l2.184-2.712h1.512l-2.016 2.4 2.22 3.492h-1.5l-1.512-2.556-.924 1.056v1.5h-1.356z" class="B"/><path d="M498.826 337.105c3.984 0 7.214-3.23 7.214-7.214s-3.23-7.214-7.214-7.214-7.213 3.23-7.213 7.214 3.23 7.214 7.213 7.214z" fill="#3c5a9a"/><path d="M501.172 324.892h-1.598c-.948 0-2.003.398-2.003 1.773v1.454h-1.097v1.746h1.13v5.025h2.078v-5.058h1.372l.124-1.718h-1.532v-.986c0-.543.566-.512.6-.512h.926l-.001-1.724z" class="C"/><path d="M486.205 332.007l-4.13-25.806" class="F G"/><path d="M486.452 331.718h4.13" class="F G"/><mask id="B" class="C"><use xlink:href="#L"/></mask><use xlink:href="#L" fill="#d2d6dc" mask="url(#B)" class="E H"/><path d="M479.037 216.027l78.666 1.31a81.58 81.58 0 0 1-16.637 48.398l-62.03-49.71z" fill="#d2d6dc" stroke-width="2" class="E"/><mask id="C" class="C"><use xlink:href="#M"/></mask><use xlink:href="#M" mask="url(#C)" class="E H I"/><mask id="D" class="C"><use xlink:href="#N"/></mask><use xlink:href="#N" mask="url(#D)" class="E H I"/><mask id="E" class="C"><use xlink:href="#O"/></mask><use xlink:href="#O" mask="url(#E)" class="E H I"/><mask id="F" class="C"><path d="M403.16 255.018a82.58 82.58 0 0 1 6.295-87.387l66.674 48.723-72.97 38.664z"/></mask><path d="M403.16 255.018a82.58 82.58 0 0 1 6.295-87.387l66.674 48.723-72.97 38.664z" mask="url(#F)" class="E H I"/><circle cx="476.129" cy="216.355" r="41.29" class="C"/><path d="M593.462 178.032h4.818l4.817 8.258h-4.817l-4.818-8.258z" fill="#ffc107"/><path d="M591.01 190.42l2.43-4.13h9.656l-2.41 4.13h-9.677z" fill="#1976d2"/><path d="M588.645 186.333l2.366 4.086 4.86-8.258-2.41-4.13-4.817 8.3z" fill="#4caf50"/><path d="M613.574 249.144c-.528 0-1.02-.088-1.476-.264-.448-.176-.84-.436-1.176-.78-.328-.344-.584-.768-.768-1.272s-.276-1.08-.276-1.728c0-.64.096-1.212.288-1.716.192-.512.452-.944.78-1.296a3.39 3.39 0 0 1 1.176-.804c.456-.184.944-.276 1.464-.276.56 0 1.032.104 1.416.312a3.6 3.6 0 0 1 .96.684l-.744.9c-.2-.192-.424-.352-.672-.48-.24-.136-.544-.204-.912-.204a2.22 2.22 0 0 0-.96.204c-.28.128-.524.316-.732.564-.2.24-.356.536-.468.888a3.91 3.91 0 0 0-.168 1.188c0 .896.2 1.6.6 2.112.408.504 1.008.756 1.8.756a2.35 2.35 0 0 0 .636-.084c.2-.064.364-.152.492-.264v-1.692h-1.488v-1.14h2.736v3.456c-.264.264-.616.488-1.056.672-.432.176-.916.264-1.452.264zM617.7 249v-5.892h1.14l.096.804h.048a4.22 4.22 0 0 1 .804-.672c.296-.184.628-.276.996-.276.432 0 .776.092 1.032.276.264.184.464.444.6.78a4.74 4.74 0 0 1 .876-.756c.304-.2.644-.3 1.02-.3.624 0 1.084.204 1.38.612.296.4.444.976.444 1.728V249h-1.392v-3.516c0-.488-.076-.832-.228-1.032-.144-.2-.368-.3-.672-.3-.368 0-.78.244-1.236.732V249h-1.38v-3.516c0-.488-.076-.832-.228-1.032-.144-.2-.372-.3-.684-.3-.368 0-.78.244-1.236.732V249h-1.38zm11.542.144c-.52 0-.94-.156-1.26-.468-.32-.32-.48-.74-.48-1.26 0-.312.064-.588.192-.828.136-.248.344-.46.624-.636.288-.176.648-.324 1.08-.444.44-.12.964-.212 1.572-.276-.008-.152-.032-.296-.072-.432a.85.85 0 0 0-.18-.372.73.73 0 0 0-.324-.252 1.18 1.18 0 0 0-.504-.096c-.288 0-.572.056-.852.168-.272.112-.54.248-.804.408l-.504-.924c.328-.208.696-.388 1.104-.54a3.75 3.75 0 0 1 1.32-.228c.736 0 1.284.22 1.644.66.368.432.552 1.06.552 1.884V249h-1.14l-.096-.648h-.048c-.264.224-.548.412-.852.564-.296.152-.62.228-.972.228zm.444-1.08c.24 0 .456-.056.648-.168.2-.112.412-.272.636-.48v-1.32a6.3 6.3 0 0 0-1.008.192c-.272.08-.492.172-.66.276-.168.096-.288.208-.36.336a.82.82 0 0 0-.108.408c0 .264.08.456.24.576s.364.18.612.18zm4.315.936v-5.892h1.38V249h-1.38zm.696-6.924a.88.88 0 0 1-.612-.216c-.16-.144-.24-.332-.24-.564s.08-.42.24-.564c.16-.152.364-.228.612-.228s.452.076.612.228c.16.144.24.332.24.564s-.08.42-.24.564a.88.88 0 0 1-.612.216zm3.79 7.068c-.496 0-.844-.148-1.044-.444s-.3-.7-.3-1.212v-6.96h1.38v7.032c0 .168.032.288.096.36.064.064.132.096.204.096h.084c.032 0 .076-.008.132-.024l.18 1.032c-.184.08-.428.12-.732.12z" class="B"/><path d="M589.795 249.903h12.152a1.15 1.15 0 0 0 1.15-1.149v-8.54a1.15 1.15 0 0 0-1.15-1.15h-12.152a1.15 1.15 0 0 0-1.15 1.15v8.54a1.15 1.15 0 0 0 1.15 1.149z" class="K"/><path d="M596.528 249.903h5.42a1.15 1.15 0 0 0 1.15-1.149v-8.54a1.15 1.15 0 0 0-1.15-1.15h-12.152a1.15 1.15 0 0 0-1.15 1.15l7.883 9.69z" fill="#d9d9d9"/><path d="M590.204 249.903h11.743a1.15 1.15 0 0 0 1.15-1.149v-8.376l-12.893 9.525z" fill="#eee"/><path d="M596.444 249.903h5.503a1.15 1.15 0 0 0 1.15-1.149v-8.376l-8.944 6.608 2.29 2.917z" class="K"/><path d="M601.947 239.72h-12.152c-.636 0-1.15-.142-1.15.493v8.54a1.15 1.15 0 0 0 1.15 1.149h.492v-9.36h11.168v9.36h.492a1.15 1.15 0 0 0 1.15-1.149v-8.54c0-.635-.515-.493-1.15-.493z" fill="#ca3737"/><path d="M601.947 239.064h-12.152c-.306-.001-.6.12-.815.335s-.337.5-.335.815c0 .396.5.742.5.742l6.727 4.762 6.727-4.762s.5-.346.5-.742c.002-.305-.12-.6-.335-.815s-.51-.336-.815-.335z" fill="#f5f5f5"/><path d="M602.192 239.09l-6.32 4.407-6.32-4.407a1.14 1.14 0 0 0-.905 1.122c0 .397.5.742.5.742l6.727 4.762 6.727-4.762s.5-.345.5-.742a1.14 1.14 0 0 0-.905-1.122z" fill="#e84f4b"/><path d="M548.38 245.008l38.194-1.032" class="F G"/><path d="M589.592 298.692a3.49 3.49 0 0 1-1.404-.276c-.424-.192-.788-.464-1.092-.816a3.89 3.89 0 0 1-.708-1.296c-.168-.504-.252-1.076-.252-1.716 0-.632.084-1.196.252-1.692.168-.504.404-.928.708-1.272a3.07 3.07 0 0 1 1.092-.792 3.49 3.49 0 0 1 1.404-.276 3.49 3.49 0 0 1 1.404.276 3.07 3.07 0 0 1 1.092.792c.312.344.552.768.72 1.272.168.496.252 1.06.252 1.692 0 .64-.084 1.212-.252 1.716s-.408.936-.72 1.296c-.304.352-.668.624-1.092.816a3.49 3.49 0 0 1-1.404.276zm0-1.212c.312 0 .592-.068.84-.204s.46-.328.636-.576a2.98 2.98 0 0 0 .408-.912c.096-.36.144-.76.144-1.2 0-.88-.184-1.568-.552-2.064-.36-.504-.852-.756-1.476-.756s-1.12.252-1.488.756c-.36.496-.54 1.184-.54 2.064 0 .44.048.84.144 1.2a2.98 2.98 0 0 0 .408.912c.176.248.388.44.636.576s.528.204.84.204zm6.994 1.212c-.344 0-.636-.052-.876-.156-.232-.104-.424-.248-.576-.432a2.02 2.02 0 0 1-.324-.672 3.72 3.72 0 0 1-.096-.876v-2.808h-.84v-1.032l.912-.06.168-1.608h1.152v1.608h1.5v1.092h-1.5v2.808c0 .688.276 1.032.828 1.032.104 0 .208-.012.312-.036a1.47 1.47 0 0 0 .3-.096l.24 1.02c-.16.056-.344.104-.552.144-.2.048-.416.072-.648.072zm2.26-.144v-8.472h1.38v2.184l-.048 1.14c.248-.232.52-.436.816-.612.304-.184.66-.276 1.068-.276.632 0 1.092.204 1.38.612.288.4.432.976.432 1.728v3.696h-1.38v-3.516c0-.488-.072-.832-.216-1.032s-.38-.3-.708-.3a1.24 1.24 0 0 0-.684.192c-.192.12-.412.3-.66.54v4.116h-1.38zm9.212.144c-.408 0-.788-.068-1.14-.204a2.78 2.78 0 0 1-.924-.612c-.264-.264-.472-.584-.624-.96-.144-.384-.216-.82-.216-1.308 0-.48.076-.912.228-1.296a3.03 3.03 0 0 1 .6-.972c.256-.264.548-.468.876-.612s.664-.216 1.008-.216c.4 0 .752.068 1.056.204s.556.328.756.576a2.48 2.48 0 0 1 .468.888c.104.344.156.72.156 1.128a2.91 2.91 0 0 1-.024.384c-.008.12-.02.216-.036.288h-3.744c.064.528.248.936.552 1.224.312.28.708.42 1.188.42.256 0 .492-.036.708-.108a3.36 3.36 0 0 0 .66-.324l.468.864c-.28.184-.592.336-.936.456s-.704.18-1.08.18zm-1.572-3.648h2.616c0-.456-.1-.812-.3-1.068-.192-.264-.492-.396-.9-.396-.352 0-.66.124-.924.372s-.428.612-.492 1.092zm5.134 3.504v-5.892h1.14l.096 1.044h.048c.208-.384.46-.676.756-.876.296-.208.6-.312.912-.312.28 0 .504.04.672.12l-.24 1.2a2.52 2.52 0 0 0-.288-.072 1.85 1.85 0 0 0-.324-.024c-.232 0-.476.092-.732.276-.256.176-.476.488-.66.936v3.6h-1.38zm-25.076 15V305.7h1.428l2.448 4.416.804 1.668h.048l-.12-1.308-.06-1.368V305.7h1.332v7.848h-1.428l-2.448-4.416-.804-1.668h-.048l.108 1.308c.048.456.072.904.072 1.344v3.432h-1.332zm10.275.144c-.408 0-.788-.068-1.14-.204a2.78 2.78 0 0 1-.924-.612c-.264-.264-.472-.584-.624-.96-.144-.384-.216-.82-.216-1.308 0-.48.076-.912.228-1.296a3.03 3.03 0 0 1 .6-.972c.256-.264.548-.468.876-.612s.664-.216 1.008-.216c.4 0 .752.068 1.056.204s.556.328.756.576a2.48 2.48 0 0 1 .468.888c.104.344.156.72.156 1.128a2.91 2.91 0 0 1-.024.384c-.008.12-.02.216-.036.288h-3.744c.064.528.248.936.552 1.224.312.28.708.42 1.188.42.256 0 .492-.036.708-.108a3.36 3.36 0 0 0 .66-.324l.468.864c-.28.184-.592.336-.936.456s-.704.18-1.08.18zm-1.572-3.648h2.616c0-.456-.1-.812-.3-1.068-.192-.264-.492-.396-.9-.396-.352 0-.66.124-.924.372s-.428.612-.492 1.092zm6.886 3.648c-.632 0-1.092-.2-1.38-.6-.288-.408-.432-.988-.432-1.74v-3.696h1.38v3.516c0 .488.072.832.216 1.032s.376.3.696.3c.256 0 .48-.064.672-.192.2-.128.412-.336.636-.624v-4.032h1.38v5.892h-1.128l-.108-.864h-.036c-.256.304-.536.548-.84.732-.296.184-.648.276-1.056.276zm6.992 0c-.344 0-.636-.052-.876-.156-.232-.104-.424-.248-.576-.432a2.02 2.02 0 0 1-.324-.672 3.72 3.72 0 0 1-.096-.876v-2.808h-.84v-1.032l.912-.06.168-1.608h1.152v1.608h1.5v1.092h-1.5v2.808c0 .688.276 1.032.828 1.032.104 0 .208-.012.312-.036a1.47 1.47 0 0 0 .3-.096l.24 1.02c-.16.056-.344.104-.552.144-.2.048-.416.072-.648.072zm2.26-.144v-5.892h1.14l.096 1.044h.048c.208-.384.46-.676.756-.876.296-.208.6-.312.912-.312.28 0 .504.04.672.12l-.24 1.2a2.52 2.52 0 0 0-.288-.072 1.85 1.85 0 0 0-.324-.024c-.232 0-.476.092-.732.276-.256.176-.476.488-.66.936v3.6h-1.38zm5.588.144c-.52 0-.94-.156-1.26-.468-.32-.32-.48-.74-.48-1.26 0-.312.064-.588.192-.828.136-.248.344-.46.624-.636.288-.176.648-.324 1.08-.444.44-.12.964-.212 1.572-.276-.008-.152-.032-.296-.072-.432a.85.85 0 0 0-.18-.372.73.73 0 0 0-.324-.252 1.18 1.18 0 0 0-.504-.096c-.288 0-.572.056-.852.168-.272.112-.54.248-.804.408l-.504-.924c.328-.208.696-.388 1.104-.54a3.75 3.75 0 0 1 1.32-.228c.736 0 1.284.22 1.644.66.368.432.552 1.06.552 1.884v3.492h-1.14l-.096-.648h-.048c-.264.224-.548.412-.852.564-.296.152-.62.228-.972.228zm.444-1.08c.24 0 .456-.056.648-.168.2-.112.412-.272.636-.48v-1.32a6.3 6.3 0 0 0-1.008.192c-.272.08-.492.172-.66.276-.168.096-.288.208-.36.336a.82.82 0 0 0-.108.408c0 .264.08.456.24.576s.364.18.612.18zm5.66 1.08c-.496 0-.844-.148-1.044-.444s-.3-.7-.3-1.212v-6.96h1.38v7.032c0 .168.032.288.096.36.064.064.132.096.204.096h.084c.032 0 .076-.008.132-.024l.18 1.032c-.184.08-.428.12-.732.12z" class="B"/><path d="M578.322 288.613h-12.387a1.38 1.38 0 0 0-1.376 1.376v8.258a1.38 1.38 0 0 0 1.376 1.377h3.44V301h5.505v-1.376h3.44c.757 0 1.37-.62 1.37-1.377l.006-8.258a1.38 1.38 0 0 0-1.376-1.376zm.001 9.634h-12.387v-8.258h12.387v8.258zm-1.377-6.193h-7.57v1.376h7.57v-1.376zm0 2.752h-7.57v1.377h7.57v-1.377zm-8.258-2.752h-1.377v1.376h1.377v-1.376zm0 2.752h-1.377v1.377h1.377v-1.377z" fill="#353b48" fill-opacity=".498" class="D"/><path d="M528.897 274.978l30.968 17.546" class="F G"/><path d="M300.56 209.918a3.49 3.49 0 0 1-1.404-.276c-.424-.192-.788-.464-1.092-.816a3.89 3.89 0 0 1-.708-1.296c-.168-.504-.252-1.076-.252-1.716 0-.632.084-1.196.252-1.692.168-.504.404-.928.708-1.272a3.07 3.07 0 0 1 1.092-.792 3.49 3.49 0 0 1 1.404-.276 3.49 3.49 0 0 1 1.404.276 3.07 3.07 0 0 1 1.092.792c.312.344.552.768.72 1.272.168.496.252 1.06.252 1.692 0 .64-.084 1.212-.252 1.716s-.408.936-.72 1.296c-.304.352-.668.624-1.092.816a3.49 3.49 0 0 1-1.404.276zm0-1.212c.312 0 .592-.068.84-.204s.46-.328.636-.576a2.98 2.98 0 0 0 .408-.912c.096-.36.144-.76.144-1.2 0-.88-.184-1.568-.552-2.064-.36-.504-.852-.756-1.476-.756s-1.12.252-1.488.756c-.36.496-.54 1.184-.54 2.064 0 .44.048.84.144 1.2a2.98 2.98 0 0 0 .408.912c.176.248.388.44.636.576s.528.204.84.204zm6.994 1.212c-.344 0-.636-.052-.876-.156-.232-.104-.424-.248-.576-.432a2.02 2.02 0 0 1-.324-.672 3.72 3.72 0 0 1-.096-.876v-2.808h-.84v-1.032l.912-.06.168-1.608h1.152v1.608h1.5v1.092h-1.5v2.808c0 .688.276 1.032.828 1.032.104 0 .208-.012.312-.036a1.47 1.47 0 0 0 .3-.096l.24 1.02c-.16.056-.344.104-.552.144-.2.048-.416.072-.648.072zm2.26-.144v-8.472h1.38v2.184l-.048 1.14c.248-.232.52-.436.816-.612.304-.184.66-.276 1.068-.276.632 0 1.092.204 1.38.612.288.4.432.976.432 1.728v3.696h-1.38v-3.516c0-.488-.072-.832-.216-1.032s-.38-.3-.708-.3a1.24 1.24 0 0 0-.684.192c-.192.12-.412.3-.66.54v4.116h-1.38zm9.21.144c-.408 0-.788-.068-1.14-.204a2.78 2.78 0 0 1-.924-.612c-.264-.264-.472-.584-.624-.96-.144-.384-.216-.82-.216-1.308 0-.48.076-.912.228-1.296a3.03 3.03 0 0 1 .6-.972c.256-.264.548-.468.876-.612s.664-.216 1.008-.216c.4 0 .752.068 1.056.204s.556.328.756.576a2.48 2.48 0 0 1 .468.888c.104.344.156.72.156 1.128a2.91 2.91 0 0 1-.024.384c-.008.12-.02.216-.036.288h-3.744c.064.528.248.936.552 1.224.312.28.708.42 1.188.42.256 0 .492-.036.708-.108a3.36 3.36 0 0 0 .66-.324l.468.864c-.28.184-.592.336-.936.456s-.704.18-1.08.18zm-1.572-3.648h2.616c0-.456-.1-.812-.3-1.068-.192-.264-.492-.396-.9-.396-.352 0-.66.124-.924.372s-.428.612-.492 1.092zm5.134 3.504v-5.892h1.14l.096 1.044h.048c.208-.384.46-.676.756-.876.296-.208.6-.312.912-.312.28 0 .504.04.672.12l-.24 1.2a2.52 2.52 0 0 0-.288-.072 1.85 1.85 0 0 0-.324-.024c-.232 0-.476.092-.732.276-.256.176-.476.488-.66.936v3.6h-1.38zm-25.075 15v-7.848h2.472a5.65 5.65 0 0 1 1.2.12c.376.08.7.216.972.408s.484.444.636.756c.152.304.228.684.228 1.14 0 .432-.076.808-.228 1.128a2.24 2.24 0 0 1-.636.804c-.264.208-.58.364-.948.468-.36.096-.752.144-1.176.144h-1.128v2.88h-1.392zm1.392-3.996h1.02c1.152 0 1.728-.476 1.728-1.428 0-.496-.152-.836-.456-1.02-.296-.192-.736-.288-1.32-.288h-.972v2.736zm5.472 3.996v-5.892h1.14l.096 1.044h.048c.208-.384.46-.676.756-.876.296-.208.6-.312.912-.312.28 0 .504.04.672.12l-.24 1.2a2.52 2.52 0 0 0-.288-.072 1.85 1.85 0 0 0-.324-.024c-.232 0-.476.092-.732.276-.256.176-.476.488-.66.936v3.6h-1.38zm6.772.144a2.79 2.79 0 0 1-1.056-.204 2.69 2.69 0 0 1-.9-.6 2.92 2.92 0 0 1-.612-.972c-.152-.384-.228-.82-.228-1.308s.076-.924.228-1.308a2.92 2.92 0 0 1 .612-.972 2.69 2.69 0 0 1 .9-.6c.336-.144.688-.216 1.056-.216s.72.072 1.056.216a2.54 2.54 0 0 1 .9.6 2.92 2.92 0 0 1 .612.972c.16.384.24.82.24 1.308s-.08.924-.24 1.308a2.92 2.92 0 0 1-.612.972 2.54 2.54 0 0 1-.9.6 2.79 2.79 0 0 1-1.056.204zm0-1.128a1.18 1.18 0 0 0 1.02-.528c.248-.36.372-.836.372-1.428 0-.6-.124-1.076-.372-1.428-.248-.36-.588-.54-1.02-.54s-.772.18-1.02.54c-.24.352-.36.828-.36 1.428 0 .592.12 1.068.36 1.428a1.18 1.18 0 0 0 1.02.528zm6.238 1.128c-.744 0-1.336-.268-1.776-.804-.432-.544-.648-1.304-.648-2.28 0-.48.068-.912.204-1.296.144-.384.332-.708.564-.972s.496-.468.792-.612c.304-.144.616-.216.936-.216.336 0 .62.06.852.18a3.22 3.22 0 0 1 .696.468l-.048-.948v-2.136h1.38v8.472h-1.14l-.096-.636h-.048a3.12 3.12 0 0 1-.756.552c-.288.152-.592.228-.912.228zm.336-1.14c.44 0 .852-.22 1.236-.66v-2.748c-.208-.184-.412-.312-.612-.384a1.66 1.66 0 0 0-.588-.108c-.384 0-.708.168-.972.504s-.396.816-.396 1.44c0 .64.112 1.128.336 1.464.232.328.564.492.996.492zm6.125 1.14c-.632 0-1.092-.2-1.38-.6-.288-.408-.432-.988-.432-1.74v-3.696h1.38v3.516c0 .488.072.832.216 1.032s.376.3.696.3c.256 0 .48-.064.672-.192.2-.128.412-.336.636-.624v-4.032h1.38v5.892h-1.128l-.108-.864h-.036c-.256.304-.536.548-.84.732-.296.184-.648.276-1.056.276zm7.376 0c-.4 0-.776-.068-1.128-.204a2.54 2.54 0 0 1-.9-.6c-.256-.264-.456-.588-.6-.972s-.216-.82-.216-1.308.08-.924.24-1.308.376-.708.648-.972a2.76 2.76 0 0 1 .936-.6 3.01 3.01 0 0 1 1.128-.216c.384 0 .712.064.984.192.28.128.528.284.744.468l-.672.9a2.04 2.04 0 0 0-.48-.312c-.152-.08-.32-.12-.504-.12-.48 0-.868.18-1.164.54-.296.352-.444.828-.444 1.428 0 .592.144 1.068.432 1.428a1.42 1.42 0 0 0 1.14.528c.232 0 .448-.048.648-.144.208-.104.396-.224.564-.36l.564.912a2.92 2.92 0 0 1-.924.54 2.88 2.88 0 0 1-.996.18zm5.042 0c-.344 0-.636-.052-.876-.156-.232-.104-.424-.248-.576-.432a2.02 2.02 0 0 1-.324-.672 3.72 3.72 0 0 1-.096-.876v-2.808h-.84v-1.032l.912-.06.168-1.608h1.152v1.608h1.5v1.092h-1.5v2.808c0 .688.276 1.032.828 1.032.104 0 .208-.012.312-.036a1.47 1.47 0 0 0 .3-.096l.24 1.02c-.16.056-.344.104-.552.144-.2.048-.416.072-.648.072zm2.26-.144v-5.892h1.38v5.892h-1.38zm.696-6.924a.88.88 0 0 1-.612-.216c-.16-.144-.24-.332-.24-.564s.08-.42.24-.564c.16-.152.364-.228.612-.228s.452.076.612.228c.16.144.24.332.24.564s-.08.42-.24.564a.88.88 0 0 1-.612.216zm3.765 6.924l-2.052-5.892h1.404l.936 3.06.24.876.252.9h.048l.252-.9.252-.876.936-3.06h1.332l-2.004 5.892h-1.596zm7.07.144c-.408 0-.788-.068-1.14-.204a2.78 2.78 0 0 1-.924-.612c-.264-.264-.472-.584-.624-.96-.144-.384-.216-.82-.216-1.308 0-.48.076-.912.228-1.296a3.03 3.03 0 0 1 .6-.972c.256-.264.548-.468.876-.612s.664-.216 1.008-.216c.4 0 .752.068 1.056.204s.556.328.756.576a2.48 2.48 0 0 1 .468.888c.104.344.156.72.156 1.128a2.91 2.91 0 0 1-.024.384c-.008.12-.02.216-.036.288h-3.744c.064.528.248.936.552 1.224.312.28.708.42 1.188.42.256 0 .492-.036.708-.108a3.36 3.36 0 0 0 .66-.324l.468.864c-.28.184-.592.336-.936.456s-.704.18-1.08.18zm-1.572-3.648h2.616c0-.456-.1-.812-.3-1.068-.192-.264-.492-.396-.9-.396-.352 0-.66.124-.924.372s-.428.612-.492 1.092z" class="B"/><path d="M289.3 199.84h-12.387a1.38 1.38 0 0 0-1.377 1.376v8.258a1.38 1.38 0 0 0 1.377 1.376h3.44v1.377h5.505v-1.377h3.44c.757 0 1.37-.62 1.37-1.376l.007-8.258a1.38 1.38 0 0 0-1.376-1.376zm.001 9.634h-12.387v-8.258h12.387v8.258zm-1.378-6.193h-7.57v1.376h7.57v-1.376zm0 2.752h-7.57v1.377h7.57v-1.377zm-8.258-2.752h-1.376v1.376h1.376v-1.376zm0 2.752h-1.376v1.377h1.376v-1.377z" class="D I"/><path d="M355.362 213.008l37.8 1.032" class="F G"/><path d="M386.2 295.62l32.65-18.58" class="F G"/><path d="M350.108 307.983a3.49 3.49 0 0 1-1.404-.276c-.424-.192-.788-.464-1.092-.816a3.89 3.89 0 0 1-.708-1.296c-.168-.504-.252-1.076-.252-1.716 0-.632.084-1.196.252-1.692.168-.504.404-.928.708-1.272a3.07 3.07 0 0 1 1.092-.792 3.49 3.49 0 0 1 1.404-.276 3.49 3.49 0 0 1 1.404.276 3.07 3.07 0 0 1 1.092.792c.312.344.552.768.72 1.272.168.496.252 1.06.252 1.692 0 .64-.084 1.212-.252 1.716s-.408.936-.72 1.296c-.304.352-.668.624-1.092.816a3.49 3.49 0 0 1-1.404.276zm0-1.212c.312 0 .592-.068.84-.204s.46-.328.636-.576a2.98 2.98 0 0 0 .408-.912c.096-.36.144-.76.144-1.2 0-.88-.184-1.568-.552-2.064-.36-.504-.852-.756-1.476-.756s-1.12.252-1.488.756c-.36.496-.54 1.184-.54 2.064 0 .44.048.84.144 1.2a2.98 2.98 0 0 0 .408.912c.176.248.388.44.636.576s.528.204.84.204zm6.994 1.212c-.344 0-.636-.052-.876-.156-.232-.104-.424-.248-.576-.432a2.02 2.02 0 0 1-.324-.672 3.72 3.72 0 0 1-.096-.876v-2.808h-.84v-1.032l.912-.06.168-1.608h1.152v1.608h1.5v1.092h-1.5v2.808c0 .688.276 1.032.828 1.032.104 0 .208-.012.312-.036a1.47 1.47 0 0 0 .3-.096l.24 1.02c-.16.056-.344.104-.552.144-.2.048-.416.072-.648.072zm2.26-.144v-8.472h1.38v2.184l-.048 1.14c.248-.232.52-.436.816-.612.304-.184.66-.276 1.068-.276.632 0 1.092.204 1.38.612.288.4.432.976.432 1.728v3.696H363v-3.516c0-.488-.072-.832-.216-1.032s-.38-.3-.708-.3a1.24 1.24 0 0 0-.684.192c-.192.12-.412.3-.66.54v4.116h-1.38zm9.212.144c-.408 0-.788-.068-1.14-.204a2.78 2.78 0 0 1-.924-.612c-.264-.264-.472-.584-.624-.96-.144-.384-.216-.82-.216-1.308 0-.48.076-.912.228-1.296a3.03 3.03 0 0 1 .6-.972c.256-.264.548-.468.876-.612s.664-.216 1.008-.216c.4 0 .752.068 1.056.204s.556.328.756.576a2.48 2.48 0 0 1 .468.888c.104.344.156.72.156 1.128a2.91 2.91 0 0 1-.024.384c-.008.12-.02.216-.036.288h-3.744c.064.528.248.936.552 1.224.312.28.708.42 1.188.42.256 0 .492-.036.708-.108a3.36 3.36 0 0 0 .66-.324l.468.864c-.28.184-.592.336-.936.456s-.704.18-1.08.18zm-1.572-3.648h2.616c0-.456-.1-.812-.3-1.068-.192-.264-.492-.396-.9-.396-.352 0-.66.124-.924.372s-.428.612-.492 1.092zm5.134 3.504v-5.892h1.14l.096 1.044h.048c.208-.384.46-.676.756-.876.296-.208.6-.312.912-.312.28 0 .504.04.672.12l-.24 1.2a2.52 2.52 0 0 0-.288-.072 1.85 1.85 0 0 0-.324-.024c-.232 0-.476.092-.732.276-.256.176-.476.488-.66.936v3.6h-1.38zM350 322.983c-.456 0-.868-.064-1.236-.192a2.41 2.41 0 0 1-.936-.636c-.256-.288-.456-.656-.6-1.104-.136-.456-.204-1.008-.204-1.656v-4.404h1.392v4.512c0 .424.036.784.108 1.08.08.288.188.52.324.696.144.176.312.304.504.384.192.072.408.108.648.108s.46-.036.66-.108a1.27 1.27 0 0 0 .516-.384c.144-.176.256-.408.336-.696.08-.296.12-.656.12-1.08v-4.512h1.332v4.404c0 .648-.068 1.2-.204 1.656-.136.448-.336.816-.6 1.104-.256.288-.568.5-.936.636a3.64 3.64 0 0 1-1.224.192zm4.804-.144v-5.892h1.14l.096.792h.048a4.77 4.77 0 0 1 .852-.66c.312-.184.672-.276 1.08-.276.632 0 1.092.204 1.38.612.288.4.432.976.432 1.728v3.696h-1.38v-3.516c0-.488-.072-.832-.216-1.032s-.38-.3-.708-.3a1.24 1.24 0 0 0-.684.192c-.192.12-.412.3-.66.54v4.116h-1.38zm6.715 2.328v-8.22h1.14l.096.624h.048c.248-.208.524-.388.828-.54s.62-.228.948-.228c.368 0 .692.072.972.216.288.136.532.336.732.6s.352.58.456.948.156.78.156 1.236c0 .504-.072.956-.216 1.356-.136.392-.32.724-.552.996-.232.264-.5.468-.804.612a2.19 2.19 0 0 1-.948.216c-.256 0-.512-.056-.768-.168a2.94 2.94 0 0 1-.744-.48l.036.984v1.848h-1.38zm2.568-3.324c.392 0 .72-.168.984-.504.264-.344.396-.852.396-1.524 0-.592-.1-1.052-.3-1.38s-.524-.492-.972-.492c-.416 0-.848.22-1.296.66v2.748c.216.184.424.312.624.384a1.67 1.67 0 0 0 .564.108zm4.205.996v-5.892h1.14l.096 1.044h.048c.208-.384.46-.676.756-.876.296-.208.6-.312.912-.312.28 0 .504.04.672.12l-.24 1.2a2.52 2.52 0 0 0-.288-.072 1.85 1.85 0 0 0-.324-.024c-.232 0-.476.092-.732.276-.256.176-.476.488-.66.936v3.6h-1.38zm6.77.144a2.79 2.79 0 0 1-1.056-.204 2.69 2.69 0 0 1-.9-.6 2.92 2.92 0 0 1-.612-.972c-.152-.384-.228-.82-.228-1.308s.076-.924.228-1.308a2.92 2.92 0 0 1 .612-.972 2.69 2.69 0 0 1 .9-.6c.336-.144.688-.216 1.056-.216s.72.072 1.056.216a2.54 2.54 0 0 1 .9.6 2.92 2.92 0 0 1 .612.972c.16.384.24.82.24 1.308s-.08.924-.24 1.308a2.92 2.92 0 0 1-.612.972 2.54 2.54 0 0 1-.9.6 2.79 2.79 0 0 1-1.056.204zm0-1.128a1.18 1.18 0 0 0 1.02-.528c.248-.36.372-.836.372-1.428 0-.6-.124-1.076-.372-1.428-.248-.36-.588-.54-1.02-.54s-.772.18-1.02.54c-.24.352-.36.828-.36 1.428 0 .592.12 1.068.36 1.428a1.18 1.18 0 0 0 1.02.528zm6.238 1.128c-.744 0-1.336-.268-1.776-.804-.432-.544-.648-1.304-.648-2.28 0-.48.068-.912.204-1.296.144-.384.332-.708.564-.972s.496-.468.792-.612c.304-.144.616-.216.936-.216.336 0 .62.06.852.18a3.22 3.22 0 0 1 .696.468l-.048-.948v-2.136h1.38v8.472h-1.14l-.096-.636h-.048a3.12 3.12 0 0 1-.756.552c-.288.152-.592.228-.912.228zm.336-1.14c.44 0 .852-.22 1.236-.66v-2.748c-.208-.184-.412-.312-.612-.384a1.66 1.66 0 0 0-.588-.108c-.384 0-.708.168-.972.504s-.396.816-.396 1.44c0 .64.112 1.128.336 1.464.232.328.564.492.996.492zm6.126 1.14c-.632 0-1.092-.2-1.38-.6-.288-.408-.432-.988-.432-1.74v-3.696h1.38v3.516c0 .488.072.832.216 1.032s.376.3.696.3c.256 0 .48-.064.672-.192.2-.128.412-.336.636-.624v-4.032h1.38v5.892h-1.128l-.108-.864h-.036c-.256.304-.536.548-.84.732-.296.184-.648.276-1.056.276zm7.376 0c-.4 0-.776-.068-1.128-.204a2.54 2.54 0 0 1-.9-.6c-.256-.264-.456-.588-.6-.972s-.216-.82-.216-1.308.08-.924.24-1.308.376-.708.648-.972a2.76 2.76 0 0 1 .936-.6 3.01 3.01 0 0 1 1.128-.216c.384 0 .712.064.984.192.28.128.528.284.744.468l-.672.9a2.04 2.04 0 0 0-.48-.312c-.152-.08-.32-.12-.504-.12-.48 0-.868.18-1.164.54-.296.352-.444.828-.444 1.428 0 .592.144 1.068.432 1.428a1.42 1.42 0 0 0 1.14.528c.232 0 .448-.048.648-.144.208-.104.396-.224.564-.36l.564.912a2.92 2.92 0 0 1-.924.54 2.88 2.88 0 0 1-.996.18zm5.042 0c-.344 0-.636-.052-.876-.156-.232-.104-.424-.248-.576-.432a2.02 2.02 0 0 1-.324-.672 3.72 3.72 0 0 1-.096-.876v-2.808h-.84v-1.032l.912-.06.168-1.608h1.152v1.608h1.5v1.092h-1.5v2.808c0 .688.276 1.032.828 1.032.104 0 .208-.012.312-.036a1.47 1.47 0 0 0 .3-.096l.24 1.02c-.16.056-.344.104-.552.144-.2.048-.416.072-.648.072zm2.26-.144v-5.892h1.38v5.892h-1.38zm.696-6.924a.88.88 0 0 1-.612-.216c-.16-.144-.24-.332-.24-.564s.08-.42.24-.564c.16-.152.364-.228.612-.228s.452.076.612.228c.16.144.24.332.24.564s-.08.42-.24.564a.88.88 0 0 1-.612.216zm3.765 6.924l-2.052-5.892h1.404l.936 3.06.24.876.252.9h.048l.252-.9.252-.876.936-3.06h1.332l-2.004 5.892H406.9zm7.07.144c-.408 0-.788-.068-1.14-.204a2.78 2.78 0 0 1-.924-.612c-.264-.264-.472-.584-.624-.96-.144-.384-.216-.82-.216-1.308 0-.48.076-.912.228-1.296a3.03 3.03 0 0 1 .6-.972c.256-.264.548-.468.876-.612s.664-.216 1.008-.216c.4 0 .752.068 1.056.204s.556.328.756.576a2.48 2.48 0 0 1 .468.888c.104.344.156.72.156 1.128a2.91 2.91 0 0 1-.024.384c-.008.12-.02.216-.036.288h-3.744c.064.528.248.936.552 1.224.312.28.708.42 1.188.42.256 0 .492-.036.708-.108a3.36 3.36 0 0 0 .66-.324l.468.864c-.28.184-.592.336-.936.456s-.704.18-1.08.18zm-1.572-3.648h2.616c0-.456-.1-.812-.3-1.068-.192-.264-.492-.396-.9-.396-.352 0-.66.124-.924.372s-.428.612-.492 1.092z" class="B"/><path d="M338.838 297.903H326.45a1.38 1.38 0 0 0-1.376 1.377v8.258a1.38 1.38 0 0 0 1.376 1.376h3.44v1.376h5.505v-1.376h3.44c.757 0 1.37-.62 1.37-1.376l.007-8.258a1.38 1.38 0 0 0-1.377-1.377zm.001 9.635h-12.387v-8.258h12.387v8.258zm-1.377-6.194h-7.57v1.377h7.57v-1.377zm0 2.753h-7.57v1.376h7.57v-1.376zm-8.258-2.753h-1.377v1.377h1.377v-1.377zm0 2.753h-1.377v1.376h1.377v-1.376z" class="D O"/><path d="M548.363 188.235l36.99-3.58" class="F G"/><use xlink:href="#P" class="B"/><path d="M531.166 101.774h.982v1.345l5.266.01a.57.57 0 0 1 .634.642l.017 9.932c-.017.34.032.716-.16 1.017-.24.175-.55.153-.83.166l-4.928-.005v1.345h-1.027l-7.507-1.345v-11.76l7.552-1.348z" class="D P"/><path d="M532.146 103.623h5.418v10.754h-5.418v-1.344h4.27v-.672h-4.27v-.84h4.27v-.673h-4.27v-.84h4.27v-.672h-4.27v-.84h4.27v-.672h-4.27v-.84h4.27v-.672h-4.27v-.84h4.27v-.672h-4.27v-1.176z" class="C D"/><path d="M527.004 106.592l.936-.048.678 3.396.59-3.494.984-.05-1.102 4.888c-.274.146-.684-.007-1.01.017l-.67-3.336-.66 3.24-.95-.06-.847-4.43.843-.036.51 3.208.698-3.297z" class="C D"/><path d="M494.51 140.85l22.71-29.936" class="F G"/><path d="M347.175 130.535c-.22-.676-.945-1.046-1.62-.827s-1.046.946-.826 1.622l3.327 10.238c.23.632.91.987 1.566.798.683-.196 1.1-.922.88-1.593l-3.327-10.238z" fill="#dfa22f"/><path d="M342.02 132.2c-.22-.676-.945-1.046-1.62-.826s-1.046.945-.827 1.62l3.328 10.24c.228.63.91.986 1.566.797.683-.196 1.1-.92.88-1.592l-3.327-10.24z" fill="#3cb187"/><path d="M351.364 139.014c.676-.22 1.046-.945.826-1.622s-.945-1.045-1.62-.826l-10.24 3.328a1.29 1.29 0 0 0-.798 1.565c.197.683.923 1.1 1.593.882l10.24-3.327" fill="#ce1e5b"/><path d="M342.464 141.906l2.447-.795-.795-2.448-2.447.796.795 2.447" fill="#392538"/><path d="M347.62 140.23l2.448-.795-.796-2.447-2.447.795.795 2.447z" fill="#bb242a"/><path d="M349.69 133.858c.676-.22 1.046-.946.826-1.622s-.946-1.046-1.622-.826l-10.238 3.328c-.632.228-.987.9-.798 1.565.197.683.922 1.1 1.593.882l10.24-3.327" fill="#72c5cd"/><path d="M340.788 136.75l2.448-.796-.795-2.447-2.448.796.795 2.447z" fill="#248c73"/><path d="M345.945 135.074l2.447-.795-.795-2.448-2.448.796.796 2.447z" fill="#62803a"/><g filter="url(#H)"><rect x="56.5" y="119.823" width="311.774" height="295.258" rx="4.5" fill="#fbfbfb" stroke="#e8ebee"/><path d="M369 162H56v-1h313v1z" class="D N"/><path d="M80.17 146.742h2.06v-7.22h2.493v-1.695h-7.048v1.695h2.493v7.22z" class="B"/><path d="M87.88 146.906c1.74 0 3.357-1.3 3.357-3.554s-1.616-3.555-3.357-3.555c-1.755 0-3.37 1.3-3.37 3.555s1.616 3.554 3.37 3.554zm0-1.627c-.85 0-1.267-.752-1.267-1.927s.418-1.928 1.267-1.928c.836 0 1.267.752 1.267 1.928s-.432 1.927-1.267 1.927z" class="B"/><path d="M92.64 149.258h2.047v-1.983l-.07-1.08c.488.452 1.045.71 1.644.71 1.5 0 2.91-1.34 2.91-3.664 0-2.092-1.03-3.445-2.702-3.445-.724 0-1.42.355-1.964.834h-.056l-.14-.67h-1.67v9.297zm3.148-3.992c-.348 0-.738-.1-1.1-.438v-2.775c.404-.424.766-.616 1.184-.616.822 0 1.198.616 1.198 1.832 0 1.395-.57 1.997-1.28 1.997z" class="B"/><path d="M105.7 142.23l.7-2.87h.056l.738 2.87.21.82h-1.936l.223-.82zm-3.287 4.512h2.09l.557-2.12h2.772l.557 2.12h2.173l-2.842-8.914h-2.465l-2.84 8.914z" class="B"/><path d="M111.396 149.258h2.047v-1.983l-.07-1.08c.487.452 1.044.71 1.643.71 1.49 0 2.91-1.34 2.91-3.664 0-2.092-1.03-3.445-2.702-3.445-.724 0-1.42.355-1.964.834h-.055l-.14-.67h-1.67v9.297zm3.148-3.992a1.61 1.61 0 0 1-1.101-.438v-2.775c.404-.424.766-.616 1.184-.616.822 0 1.198.616 1.198 1.832 0 1.395-.57 1.997-1.28 1.997z" class="B"/><path d="M119.38 149.258h2.048v-1.983l-.07-1.08c.488.452 1.045.71 1.644.71 1.5 0 2.91-1.34 2.91-3.664 0-2.092-1.03-3.445-2.702-3.445-.725 0-1.42.355-1.964.834h-.056l-.14-.67h-1.672v9.297zm3.148-3.992c-.348 0-.738-.1-1.1-.438v-2.775c.404-.424.766-.616 1.184-.616.82 0 1.197.616 1.197 1.832 0 1.395-.57 1.997-1.28 1.997z" class="B"/><path d="M129.33 146.906c1.853 0 2.84-.957 2.84-2.187 0-1.244-.988-1.723-1.866-2.037-.7-.26-1.35-.424-1.35-.862 0-.342.25-.533.78-.533.487 0 .96.22 1.462.574l.92-1.203c-.6-.437-1.38-.86-2.438-.86-1.6 0-2.646.86-2.646 2.12 0 1.12.99 1.682 1.825 1.996.7.274 1.406.48 1.406.93 0 .355-.264.574-.877.574-.585 0-1.156-.246-1.783-.71l-.92 1.258c.696.56 1.74.943 2.646.943z" class="B"/><path d="M138 146.906c.78 0 1.42-.355 2.006-.86h.056l.14.697h1.67v-3.883c0-2.078-.975-3.062-2.744-3.062-1.086 0-2.075.37-2.952.888l.738 1.327c.668-.383 1.24-.616 1.824-.616.753 0 1.045.383 1.087.985-2.73.273-3.886 1.053-3.886 2.474 0 1.15.794 2.05 2.06 2.05zm.697-1.558c-.488 0-.794-.205-.794-.643 0-.52.473-.93 1.922-1.12v1.19c-.362.356-.67.575-1.128.575z" class="B"/><path d="M143.605 146.742h2.048v-4.58c.445-.424.766-.656 1.28-.656.585 0 .85.3.85 1.285v3.95h2.047v-4.21c0-1.695-.64-2.734-2.145-2.734-.933 0-1.63.478-2.214 1.025h-.056l-.14-.86h-1.672v6.78z" class="B"/><path d="M154.04 146.906c.67 0 1.35-.355 1.84-.834h.056l.14.67h1.67v-9.584H155.7v2.31l.083 1.04c-.473-.438-.933-.71-1.7-.71-1.462 0-2.87 1.34-2.87 3.555s1.114 3.554 2.827 3.554zm.53-1.64c-.794 0-1.254-.602-1.254-1.942 0-1.285.585-1.887 1.24-1.887.376 0 .78.1 1.142.438v2.775c-.335.452-.683.616-1.128.616z" class="B"/><path d="M163.324 146.742h2.535l.85-4.047.376-2.064h.056l.362 2.064.892 4.047h2.576l1.616-8.914h-1.964l-.627 4.17-.376 2.816h-.055l-.544-2.816-.975-4.17h-1.74l-.975 4.17-.543 2.816h-.056l-.362-2.816-.627-4.17h-2.103l1.686 8.914z" class="B"/><path d="M176.77 146.906a4.58 4.58 0 0 0 2.451-.765l-.682-1.217c-.5.3-.975.45-1.5.45-.92 0-1.616-.45-1.797-1.436h4.137c.04-.164.083-.533.083-.888 0-1.846-.975-3.254-2.94-3.254-1.657 0-3.26 1.353-3.26 3.555 0 2.242 1.518 3.554 3.496 3.554zm-1.532-4.293c.14-.86.696-1.285 1.337-1.285.822 0 1.156.533 1.156 1.285h-2.493z" class="B"/><path d="M184.51 146.906c1.49 0 2.91-1.34 2.91-3.678 0-2.078-1.044-3.43-2.716-3.43-.64 0-1.295.287-1.824.752l.055-1.04v-2.352h-2.047v9.584h1.602l.167-.724h.056c.543.588 1.184.888 1.796.888zm-.473-1.64a1.61 1.61 0 0 1-1.101-.438v-2.775c.4-.424.767-.616 1.184-.616.822 0 1.198.616 1.198 1.832 0 1.395-.57 1.997-1.28 1.997z" class="B"/><path d="M190.838 146.906c1.852 0 2.84-.957 2.84-2.187 0-1.244-.99-1.723-1.866-2.037-.7-.26-1.35-.424-1.35-.862 0-.342.25-.533.78-.533.487 0 .96.22 1.462.574l.92-1.203c-.6-.437-1.38-.86-2.438-.86-1.602 0-2.646.86-2.646 2.12 0 1.12.99 1.682 1.824 1.996.71.274 1.407.48 1.407.93 0 .355-.265.574-.877.574-.585 0-1.156-.246-1.783-.71l-.92 1.258a4.52 4.52 0 0 0 2.647.943z" class="B"/><path d="M194.98 146.742h2.047v-6.78h-2.047v6.78zm1.016-7.78c.697 0 1.184-.438 1.184-1.053s-.487-1.04-1.184-1.04c-.682 0-1.184.424-1.184 1.04s.502 1.053 1.184 1.053z" class="B"/><path d="M201.49 146.906c.67 0 1.17-.136 1.532-.246l-.32-1.463c-.18.07-.432.137-.655.137-.543 0-.89-.314-.89-1.08v-2.72h1.657v-1.572h-1.657v-1.805h-1.7l-.237 1.805-1.06.082v1.5h.947v2.748c0 1.573.67 2.625 2.382 2.625z" class="B"/><path d="M207.008 146.906c.822 0 1.74-.287 2.452-.765l-.683-1.217c-.5.3-.975.45-1.5.45-.92 0-1.616-.45-1.797-1.436h4.137c.04-.164.083-.533.083-.888 0-1.846-.975-3.254-2.94-3.254-1.657 0-3.26 1.353-3.26 3.555 0 2.242 1.518 3.554 3.496 3.554zm-1.532-4.293c.14-.86.696-1.285 1.337-1.285.822 0 1.156.533 1.156 1.285h-2.493z" class="B"/><path d="M213.16 146.906c1.852 0 2.84-.957 2.84-2.187 0-1.244-.99-1.723-1.866-2.037-.71-.26-1.35-.424-1.35-.862 0-.342.25-.533.78-.533.488 0 .962.22 1.463.574l.92-1.203c-.6-.437-1.38-.86-2.437-.86-1.602 0-2.647.86-2.647 2.12 0 1.12.99 1.682 1.825 1.996.7.274 1.407.48 1.407.93 0 .355-.265.574-.878.574-.585 0-1.156-.246-1.783-.71l-.92 1.258a4.52 4.52 0 0 0 2.647.943z" class="B"/></g><use xlink:href="#Q" class="Q R"/><path d="M112.617 205.79c-.744 0-1.336-.268-1.776-.804-.432-.544-.648-1.304-.648-2.28 0-.48.068-.912.204-1.296.144-.384.332-.708.564-.972s.496-.468.792-.612c.304-.144.616-.216.936-.216.336 0 .62.06.852.18a3.22 3.22 0 0 1 .696.468l-.048-.948v-2.136h1.38v8.472h-1.14l-.096-.636h-.048a3.12 3.12 0 0 1-.756.552c-.288.152-.592.228-.912.228zm.336-1.14c.44 0 .852-.22 1.236-.66v-2.748c-.208-.184-.412-.312-.612-.384a1.66 1.66 0 0 0-.588-.108c-.384 0-.708.168-.972.504s-.396.816-.396 1.44c0 .64.112 1.128.336 1.464.232.328.564.492.996.492zm4.374.996v-5.892h1.14l.096 1.044h.048c.208-.384.46-.676.756-.876.296-.208.6-.312.912-.312.28 0 .504.04.672.12l-.24 1.2a2.52 2.52 0 0 0-.288-.072 1.85 1.85 0 0 0-.324-.024c-.232 0-.476.092-.732.276-.256.176-.476.488-.66.936v3.6h-1.38zm4.476 0v-5.892h1.38v5.892h-1.38zm.696-6.924a.88.88 0 0 1-.612-.216c-.16-.144-.24-.332-.24-.564s.08-.42.24-.564c.16-.152.364-.228.612-.228s.452.076.612.228c.16.144.24.332.24.564s-.08.42-.24.564a.88.88 0 0 1-.612.216zm3.765 6.924l-2.052-5.892h1.404l.936 3.06.24.876.252.9h.048l.252-.9.252-.876.936-3.06h1.332l-2.004 5.892h-1.596zm7.07.144c-.408 0-.788-.068-1.14-.204a2.78 2.78 0 0 1-.924-.612c-.264-.264-.472-.584-.624-.96-.144-.384-.216-.82-.216-1.308 0-.48.076-.912.228-1.296a3.03 3.03 0 0 1 .6-.972c.256-.264.548-.468.876-.612s.664-.216 1.008-.216c.4 0 .752.068 1.056.204s.556.328.756.576a2.48 2.48 0 0 1 .468.888c.104.344.156.72.156 1.128a2.91 2.91 0 0 1-.024.384c-.008.12-.02.216-.036.288h-3.744c.064.528.248.936.552 1.224.312.28.708.42 1.188.42.256 0 .492-.036.708-.108a3.36 3.36 0 0 0 .66-.324l.468.864c-.28.184-.592.336-.936.456s-.704.18-1.08.18zm-1.572-3.648h2.616c0-.456-.1-.812-.3-1.068-.192-.264-.492-.396-.9-.396-.352 0-.66.124-.924.372s-.428.612-.492 1.092zm5.914 3.648a.88.88 0 0 1-.648-.264c-.168-.176-.252-.4-.252-.672s.084-.496.252-.672a.88.88 0 0 1 .648-.264.84.84 0 0 1 .636.264c.168.176.252.4.252.672s-.084.496-.252.672a.84.84 0 0 1-.636.264zm4.577 2.46c-.352 0-.68-.032-.984-.096-.296-.064-.552-.16-.768-.288a1.57 1.57 0 0 1-.516-.48 1.24 1.24 0 0 1-.18-.672 1.23 1.23 0 0 1 .216-.696c.144-.208.352-.396.624-.564v-.048c-.152-.096-.28-.224-.384-.384-.096-.16-.144-.36-.144-.6 0-.232.064-.44.192-.624.136-.192.288-.348.456-.468v-.048c-.2-.152-.38-.36-.54-.624-.152-.272-.228-.584-.228-.936 0-.336.064-.636.192-.9s.296-.484.504-.66a2.11 2.11 0 0 1 .744-.408 2.72 2.72 0 0 1 .888-.144c.16 0 .312.016.456.048.152.024.288.056.408.096h2.112v1.02h-1.08c.096.112.176.256.24.432.064.168.096.356.096.564 0 .328-.06.616-.18.864-.112.248-.268.456-.468.624s-.436.296-.708.384a2.83 2.83 0 0 1-.876.132c-.128 0-.26-.012-.396-.036a1.97 1.97 0 0 1-.408-.12 1.46 1.46 0 0 0-.216.24c-.048.08-.072.188-.072.324a.46.46 0 0 0 .204.396c.144.096.396.144.756.144h1.044c.712 0 1.248.116 1.608.348.368.224.552.592.552 1.104 0 .288-.076.56-.228.816-.144.256-.352.476-.624.66s-.604.328-.996.432c-.384.112-.816.168-1.296.168zm.072-5.34a.98.98 0 0 0 .72-.3c.2-.208.3-.504.3-.888 0-.368-.1-.652-.3-.852a.94.94 0 0 0-.72-.312c-.288 0-.532.1-.732.3s-.3.488-.3.864c0 .384.1.68.3.888.2.2.444.3.732.3zm.144 4.44c.48 0 .864-.096 1.152-.288.296-.184.444-.404.444-.66 0-.232-.092-.388-.276-.468-.176-.08-.432-.12-.768-.12h-.804c-.32 0-.588-.028-.804-.084-.304.232-.456.492-.456.78 0 .264.132.468.396.612.272.152.644.228 1.116.228zm6.19-1.56a2.79 2.79 0 0 1-1.056-.204 2.69 2.69 0 0 1-.9-.6 2.92 2.92 0 0 1-.612-.972c-.152-.384-.228-.82-.228-1.308s.076-.924.228-1.308a2.92 2.92 0 0 1 .612-.972 2.69 2.69 0 0 1 .9-.6c.336-.144.688-.216 1.056-.216s.72.072 1.056.216a2.54 2.54 0 0 1 .9.6 2.92 2.92 0 0 1 .612.972c.16.384.24.82.24 1.308s-.08.924-.24 1.308a2.92 2.92 0 0 1-.612.972 2.54 2.54 0 0 1-.9.6 2.79 2.79 0 0 1-1.056.204zm0-1.128a1.18 1.18 0 0 0 1.02-.528c.248-.36.372-.836.372-1.428 0-.6-.124-1.076-.372-1.428-.248-.36-.588-.54-1.02-.54s-.772.18-1.02.54c-.24.352-.36.828-.36 1.428 0 .592.12 1.068.36 1.428a1.18 1.18 0 0 0 1.02.528zm6.586 1.128a2.79 2.79 0 0 1-1.056-.204 2.69 2.69 0 0 1-.9-.6 2.92 2.92 0 0 1-.612-.972c-.152-.384-.228-.82-.228-1.308s.076-.924.228-1.308a2.92 2.92 0 0 1 .612-.972 2.69 2.69 0 0 1 .9-.6c.336-.144.688-.216 1.056-.216s.72.072 1.056.216a2.54 2.54 0 0 1 .9.6 2.92 2.92 0 0 1 .612.972c.16.384.24.82.24 1.308s-.08.924-.24 1.308a2.92 2.92 0 0 1-.612.972 2.54 2.54 0 0 1-.9.6 2.79 2.79 0 0 1-1.056.204zm0-1.128a1.18 1.18 0 0 0 1.02-.528c.248-.36.372-.836.372-1.428 0-.6-.124-1.076-.372-1.428-.248-.36-.588-.54-1.02-.54s-.772.18-1.02.54c-.24.352-.36.828-.36 1.428 0 .592.12 1.068.36 1.428a1.18 1.18 0 0 0 1.02.528zm6.226 3.588c-.352 0-.68-.032-.984-.096-.296-.064-.552-.16-.768-.288a1.57 1.57 0 0 1-.516-.48 1.24 1.24 0 0 1-.18-.672 1.23 1.23 0 0 1 .216-.696c.144-.208.352-.396.624-.564v-.048c-.152-.096-.28-.224-.384-.384-.096-.16-.144-.36-.144-.6 0-.232.064-.44.192-.624.136-.192.288-.348.456-.468v-.048c-.2-.152-.38-.36-.54-.624-.152-.272-.228-.584-.228-.936 0-.336.064-.636.192-.9s.296-.484.504-.66a2.11 2.11 0 0 1 .744-.408 2.72 2.72 0 0 1 .888-.144c.16 0 .312.016.456.048.152.024.288.056.408.096h2.112v1.02h-1.08c.096.112.176.256.24.432.064.168.096.356.096.564 0 .328-.06.616-.18.864-.112.248-.268.456-.468.624s-.436.296-.708.384a2.83 2.83 0 0 1-.876.132c-.128 0-.26-.012-.396-.036a1.97 1.97 0 0 1-.408-.12 1.46 1.46 0 0 0-.216.24c-.048.08-.072.188-.072.324a.46.46 0 0 0 .204.396c.144.096.396.144.756.144h1.044c.712 0 1.248.116 1.608.348.368.224.552.592.552 1.104 0 .288-.076.56-.228.816-.144.256-.352.476-.624.66s-.604.328-.996.432c-.384.112-.816.168-1.296.168zm.072-5.34a.98.98 0 0 0 .72-.3c.2-.208.3-.504.3-.888 0-.368-.1-.652-.3-.852a.94.94 0 0 0-.72-.312c-.288 0-.532.1-.732.3s-.3.488-.3.864c0 .384.1.68.3.888.2.2.444.3.732.3zm.144 4.44c.48 0 .864-.096 1.152-.288.296-.184.444-.404.444-.66 0-.232-.092-.388-.276-.468-.176-.08-.432-.12-.768-.12h-.804c-.32 0-.588-.028-.804-.084-.304.232-.456.492-.456.78 0 .264.132.468.396.612.272.152.644.228 1.116.228zm5.3-1.56c-.496 0-.844-.148-1.044-.444s-.3-.7-.3-1.212v-6.96h1.38v7.032c0 .168.032.288.096.36.064.064.132.096.204.096h.084c.032 0 .076-.008.132-.024l.18 1.032c-.184.08-.428.12-.732.12zm4.434 0c-.408 0-.788-.068-1.14-.204a2.78 2.78 0 0 1-.924-.612c-.264-.264-.472-.584-.624-.96-.144-.384-.216-.82-.216-1.308 0-.48.076-.912.228-1.296a3.03 3.03 0 0 1 .6-.972c.256-.264.548-.468.876-.612s.664-.216 1.008-.216c.4 0 .752.068 1.056.204s.556.328.756.576a2.48 2.48 0 0 1 .468.888c.104.344.156.72.156 1.128a2.91 2.91 0 0 1-.024.384c-.008.12-.02.216-.036.288h-3.744c.064.528.248.936.552 1.224.312.28.708.42 1.188.42.256 0 .492-.036.708-.108a3.36 3.36 0 0 0 .66-.324l.468.864c-.28.184-.592.336-.936.456s-.704.18-1.08.18zm-1.572-3.648h2.616c0-.456-.1-.812-.3-1.068-.192-.264-.492-.396-.9-.396-.352 0-.66.124-.924.372s-.428.612-.492 1.092zm5.914 3.648a.88.88 0 0 1-.648-.264c-.168-.176-.252-.4-.252-.672s.084-.496.252-.672a.88.88 0 0 1 .648-.264.84.84 0 0 1 .636.264c.168.176.252.4.252.672s-.084.496-.252.672a.84.84 0 0 1-.636.264zm4.856 0c-.4 0-.776-.068-1.128-.204a2.54 2.54 0 0 1-.9-.6c-.256-.264-.456-.588-.6-.972s-.216-.82-.216-1.308.08-.924.24-1.308.376-.708.648-.972a2.76 2.76 0 0 1 .936-.6 3.01 3.01 0 0 1 1.128-.216c.384 0 .712.064.984.192.28.128.528.284.744.468l-.672.9a2.04 2.04 0 0 0-.48-.312c-.152-.08-.32-.12-.504-.12-.48 0-.868.18-1.164.54-.296.352-.444.828-.444 1.428 0 .592.144 1.068.432 1.428a1.42 1.42 0 0 0 1.14.528c.232 0 .448-.048.648-.144.208-.104.396-.224.564-.36l.564.912a2.92 2.92 0 0 1-.924.54 2.88 2.88 0 0 1-.996.18zm5.202 0a2.79 2.79 0 0 1-1.056-.204 2.69 2.69 0 0 1-.9-.6 2.92 2.92 0 0 1-.612-.972c-.152-.384-.228-.82-.228-1.308s.076-.924.228-1.308a2.92 2.92 0 0 1 .612-.972 2.69 2.69 0 0 1 .9-.6c.336-.144.688-.216 1.056-.216s.72.072 1.056.216a2.54 2.54 0 0 1 .9.6 2.92 2.92 0 0 1 .612.972c.16.384.24.82.24 1.308s-.08.924-.24 1.308a2.92 2.92 0 0 1-.612.972 2.54 2.54 0 0 1-.9.6 2.79 2.79 0 0 1-1.056.204zm0-1.128a1.18 1.18 0 0 0 1.02-.528c.248-.36.372-.836.372-1.428 0-.6-.124-1.076-.372-1.428-.248-.36-.588-.54-1.02-.54s-.772.18-1.02.54c-.24.352-.36.828-.36 1.428 0 .592.12 1.068.36 1.428a1.18 1.18 0 0 0 1.02.528zm4.174.984v-5.892h1.14l.096.804h.048a4.22 4.22 0 0 1 .804-.672c.296-.184.628-.276.996-.276.432 0 .776.092 1.032.276.264.184.464.444.6.78a4.74 4.74 0 0 1 .876-.756c.304-.2.644-.3 1.02-.3.624 0 1.084.204 1.38.612.296.4.444.976.444 1.728v3.696h-1.392v-3.516c0-.488-.076-.832-.228-1.032-.144-.2-.368-.3-.672-.3-.368 0-.78.244-1.236.732v4.116h-1.38v-3.516c0-.488-.076-.832-.228-1.032-.144-.2-.372-.3-.684-.3-.368 0-.78.244-1.236.732v4.116h-1.38z" class="J"/><path d="M258.286 205.7v-7.848h2.472a5.65 5.65 0 0 1 1.2.12c.376.08.7.216.972.408s.484.444.636.756c.152.304.228.684.228 1.14 0 .432-.076.808-.228 1.128a2.24 2.24 0 0 1-.636.804c-.264.208-.58.364-.948.468-.36.096-.752.144-1.176.144h-1.128v2.88h-1.392zm1.392-3.996h1.02c1.152 0 1.728-.476 1.728-1.428 0-.496-.152-.836-.456-1.02-.296-.192-.736-.288-1.32-.288h-.972v2.736zm5.473 3.996v-5.892h1.14l.096 1.044h.048c.208-.384.46-.676.756-.876.296-.208.6-.312.912-.312.28 0 .504.04.672.12l-.24 1.2a2.52 2.52 0 0 0-.288-.072 1.85 1.85 0 0 0-.324-.024c-.232 0-.476.092-.732.276-.256.176-.476.488-.66.936v3.6h-1.38zm6.77.144a2.79 2.79 0 0 1-1.056-.204 2.69 2.69 0 0 1-.9-.6 2.92 2.92 0 0 1-.612-.972c-.152-.384-.228-.82-.228-1.308s.076-.924.228-1.308a2.92 2.92 0 0 1 .612-.972 2.69 2.69 0 0 1 .9-.6c.336-.144.688-.216 1.056-.216s.72.072 1.056.216a2.54 2.54 0 0 1 .9.6 2.92 2.92 0 0 1 .612.972c.16.384.24.82.24 1.308s-.08.924-.24 1.308a2.92 2.92 0 0 1-.612.972 2.54 2.54 0 0 1-.9.6 2.79 2.79 0 0 1-1.056.204zm0-1.128a1.18 1.18 0 0 0 1.02-.528c.248-.36.372-.836.372-1.428 0-.6-.124-1.076-.372-1.428-.248-.36-.588-.54-1.02-.54s-.772.18-1.02.54c-.24.352-.36.828-.36 1.428 0 .592.12 1.068.36 1.428a1.18 1.18 0 0 0 1.02.528zm6.238 1.128c-.744 0-1.336-.268-1.776-.804-.432-.544-.648-1.304-.648-2.28 0-.48.068-.912.204-1.296.144-.384.332-.708.564-.972s.496-.468.792-.612c.304-.144.616-.216.936-.216.336 0 .62.06.852.18a3.22 3.22 0 0 1 .696.468l-.048-.948v-2.136h1.38v8.472h-1.14l-.096-.636h-.048a3.12 3.12 0 0 1-.756.552c-.288.152-.592.228-.912.228zm.336-1.14c.44 0 .852-.22 1.236-.66v-2.748c-.208-.184-.412-.312-.612-.384a1.66 1.66 0 0 0-.588-.108c-.384 0-.708.168-.972.504s-.396.816-.396 1.44c0 .64.112 1.128.336 1.464.232.328.564.492.996.492zm6.126 1.14c-.632 0-1.092-.2-1.38-.6-.288-.408-.432-.988-.432-1.74v-3.696h1.38v3.516c0 .488.072.832.216 1.032s.376.3.696.3c.256 0 .48-.064.672-.192.2-.128.412-.336.636-.624v-4.032h1.38v5.892h-1.128l-.108-.864h-.036c-.256.304-.536.548-.84.732-.296.184-.648.276-1.056.276zm7.375 0c-.4 0-.776-.068-1.128-.204a2.54 2.54 0 0 1-.9-.6c-.256-.264-.456-.588-.6-.972s-.216-.82-.216-1.308.08-.924.24-1.308.376-.708.648-.972a2.76 2.76 0 0 1 .936-.6 3.01 3.01 0 0 1 1.128-.216c.384 0 .712.064.984.192.28.128.528.284.744.468l-.672.9a2.04 2.04 0 0 0-.48-.312c-.152-.08-.32-.12-.504-.12-.48 0-.868.18-1.164.54-.296.352-.444.828-.444 1.428 0 .592.144 1.068.432 1.428a1.42 1.42 0 0 0 1.14.528c.232 0 .448-.048.648-.144.208-.104.396-.224.564-.36l.564.912a2.92 2.92 0 0 1-.924.54 2.88 2.88 0 0 1-.996.18zm5.042 0c-.344 0-.636-.052-.876-.156-.232-.104-.424-.248-.576-.432a2.02 2.02 0 0 1-.324-.672 3.72 3.72 0 0 1-.096-.876V200.9h-.84v-1.032l.912-.06.168-1.608h1.152v1.608h1.5v1.092h-1.5v2.808c0 .688.276 1.032.828 1.032.104 0 .208-.012.312-.036a1.47 1.47 0 0 0 .3-.096l.24 1.02c-.16.056-.344.104-.552.144-.2.048-.416.072-.648.072zm2.26-.144v-5.892h1.38v5.892h-1.38zm.696-6.924a.88.88 0 0 1-.612-.216c-.16-.144-.24-.332-.24-.564s.08-.42.24-.564c.16-.152.364-.228.612-.228s.452.076.612.228c.16.144.24.332.24.564s-.08.42-.24.564a.88.88 0 0 1-.612.216zm3.765 6.924l-2.052-5.892h1.404l.936 3.06.24.876.252.9h.048l.252-.9.252-.876.936-3.06h1.332l-2.004 5.892h-1.596zm7.07.144c-.408 0-.788-.068-1.14-.204a2.78 2.78 0 0 1-.924-.612c-.264-.264-.472-.584-.624-.96-.144-.384-.216-.82-.216-1.308 0-.48.076-.912.228-1.296a3.03 3.03 0 0 1 .6-.972c.256-.264.548-.468.876-.612s.664-.216 1.008-.216c.4 0 .752.068 1.056.204s.556.328.756.576a2.48 2.48 0 0 1 .468.888c.104.344.156.72.156 1.128a2.91 2.91 0 0 1-.024.384c-.008.12-.02.216-.036.288h-3.744c.064.528.248.936.552 1.224.312.28.708.42 1.188.42.256 0 .492-.036.708-.108a3.36 3.36 0 0 0 .66-.324l.468.864c-.28.184-.592.336-.936.456s-.704.18-1.08.18zm-1.572-3.648h2.616c0-.456-.1-.812-.3-1.068-.192-.264-.492-.396-.9-.396-.352 0-.66.124-.924.372s-.428.612-.492 1.092z" class="L"/><path d="M89.72 195.58h4.817l4.817 8.258h-4.817l-4.817-8.258z" fill="#ffc107"/><path d="M87.27 207.968l2.43-4.13h9.656l-2.41 4.13H87.27z" fill="#1976d2"/><path d="M84.903 203.882l2.366 4.086 4.86-8.258-2.41-4.13-4.817 8.3z" fill="#4caf50"/><use xlink:href="#R" class="Q R"/><path d="M92.456 235.968h.982v1.344l5.267.01c.374-.038.668.26.634.642l.016 9.933c-.016.34.033.716-.16 1.017-.24.174-.55.153-.83.166l-4.93-.005v1.344h-1.026l-7.508-1.344v-11.76l7.552-1.347z" class="D P"/><path d="M93.437 237.816h5.418v10.754h-5.418v-1.344h4.27v-.672h-4.27v-.84h4.27v-.673h-4.27v-.84h4.27v-.672h-4.27v-.84h4.27v-.672h-4.27v-.84h4.27v-.673h-4.27v-.84h4.27v-.672h-4.27v-1.176z" class="C D"/><path d="M88.295 240.785l.936-.048.678 3.396.59-3.494.983-.05-1.102 4.888c-.274.146-.685-.007-1 .017l-.668-3.336-.662 3.24-.95-.06-.847-4.43.844-.035.51 3.207.698-3.297z" class="C D"/><use xlink:href="#P" x="-434.581" y="133.162" class="J"/><path d="M258.286 247v-7.848h2.472a5.65 5.65 0 0 1 1.2.12c.376.08.7.216.972.408s.484.444.636.756c.152.304.228.684.228 1.14 0 .432-.076.808-.228 1.128a2.24 2.24 0 0 1-.636.804c-.264.208-.58.364-.948.468-.36.096-.752.144-1.176.144h-1.128V247h-1.392zm1.392-3.996h1.02c1.152 0 1.728-.476 1.728-1.428 0-.496-.152-.836-.456-1.02-.296-.192-.736-.288-1.32-.288h-.972v2.736zM265.15 247v-5.892h1.14l.096 1.044h.048c.208-.384.46-.676.756-.876.296-.208.6-.312.912-.312.28 0 .504.04.672.12l-.24 1.2a2.52 2.52 0 0 0-.288-.072 1.85 1.85 0 0 0-.324-.024c-.232 0-.476.092-.732.276-.256.176-.476.488-.66.936v3.6h-1.38zm6.77.144a2.79 2.79 0 0 1-1.056-.204 2.69 2.69 0 0 1-.9-.6 2.92 2.92 0 0 1-.612-.972c-.152-.384-.228-.82-.228-1.308s.076-.924.228-1.308a2.92 2.92 0 0 1 .612-.972 2.69 2.69 0 0 1 .9-.6c.336-.144.688-.216 1.056-.216s.72.072 1.056.216a2.54 2.54 0 0 1 .9.6 2.92 2.92 0 0 1 .612.972c.16.384.24.82.24 1.308s-.08.924-.24 1.308a2.92 2.92 0 0 1-.612.972 2.54 2.54 0 0 1-.9.6 2.79 2.79 0 0 1-1.056.204zm0-1.128a1.18 1.18 0 0 0 1.02-.528c.248-.36.372-.836.372-1.428 0-.6-.124-1.076-.372-1.428-.248-.36-.588-.54-1.02-.54s-.772.18-1.02.54c-.24.352-.36.828-.36 1.428 0 .592.12 1.068.36 1.428a1.18 1.18 0 0 0 1.02.528zm6.238 1.128c-.744 0-1.336-.268-1.776-.804-.432-.544-.648-1.304-.648-2.28 0-.48.068-.912.204-1.296.144-.384.332-.708.564-.972s.496-.468.792-.612c.304-.144.616-.216.936-.216.336 0 .62.06.852.18a3.22 3.22 0 0 1 .696.468l-.048-.948v-2.136h1.38V247h-1.14l-.096-.636h-.048a3.12 3.12 0 0 1-.756.552c-.288.152-.592.228-.912.228zm.336-1.14c.44 0 .852-.22 1.236-.66v-2.748c-.208-.184-.412-.312-.612-.384a1.66 1.66 0 0 0-.588-.108c-.384 0-.708.168-.972.504s-.396.816-.396 1.44c0 .64.112 1.128.336 1.464.232.328.564.492.996.492zm6.126 1.14c-.632 0-1.092-.2-1.38-.6-.288-.408-.432-.988-.432-1.74v-3.696h1.38v3.516c0 .488.072.832.216 1.032s.376.3.696.3c.256 0 .48-.064.672-.192.2-.128.412-.336.636-.624v-4.032h1.38V247h-1.128l-.108-.864h-.036c-.256.304-.536.548-.84.732-.296.184-.648.276-1.056.276zm7.375 0c-.4 0-.776-.068-1.128-.204a2.54 2.54 0 0 1-.9-.6c-.256-.264-.456-.588-.6-.972s-.216-.82-.216-1.308.08-.924.24-1.308.376-.708.648-.972a2.76 2.76 0 0 1 .936-.6 3.01 3.01 0 0 1 1.128-.216c.384 0 .712.064.984.192.28.128.528.284.744.468l-.672.9a2.04 2.04 0 0 0-.48-.312c-.152-.08-.32-.12-.504-.12-.48 0-.868.18-1.164.54-.296.352-.444.828-.444 1.428 0 .592.144 1.068.432 1.428a1.42 1.42 0 0 0 1.14.528c.232 0 .448-.048.648-.144.208-.104.396-.224.564-.36l.564.912a2.92 2.92 0 0 1-.924.54 2.88 2.88 0 0 1-.996.18zm5.042 0c-.344 0-.636-.052-.876-.156-.232-.104-.424-.248-.576-.432a2.02 2.02 0 0 1-.324-.672 3.72 3.72 0 0 1-.096-.876V242.2h-.84v-1.032l.912-.06.168-1.608h1.152v1.608h1.5v1.092h-1.5v2.808c0 .688.276 1.032.828 1.032.104 0 .208-.012.312-.036a1.47 1.47 0 0 0 .3-.096l.24 1.02c-.16.056-.344.104-.552.144-.2.048-.416.072-.648.072zm2.26-.144v-5.892h1.38V247h-1.38zm.696-6.924a.88.88 0 0 1-.612-.216c-.16-.144-.24-.332-.24-.564s.08-.42.24-.564c.16-.152.364-.228.612-.228s.452.076.612.228c.16.144.24.332.24.564s-.08.42-.24.564a.88.88 0 0 1-.612.216zM303.76 247l-2.052-5.892h1.404l.936 3.06.24.876.252.9h.048l.252-.9.252-.876.936-3.06h1.332L305.356 247h-1.596zm7.07.144c-.408 0-.788-.068-1.14-.204a2.78 2.78 0 0 1-.924-.612c-.264-.264-.472-.584-.624-.96-.144-.384-.216-.82-.216-1.308 0-.48.076-.912.228-1.296a3.03 3.03 0 0 1 .6-.972c.256-.264.548-.468.876-.612s.664-.216 1.008-.216c.4 0 .752.068 1.056.204s.556.328.756.576a2.48 2.48 0 0 1 .468.888c.104.344.156.72.156 1.128a2.91 2.91 0 0 1-.024.384c-.008.12-.02.216-.036.288h-3.744c.064.528.248.936.552 1.224.312.28.708.42 1.188.42.256 0 .492-.036.708-.108a3.36 3.36 0 0 0 .66-.324l.468.864c-.28.184-.592.336-.936.456s-.704.18-1.08.18zm-1.572-3.648h2.616c0-.456-.1-.812-.3-1.068-.192-.264-.492-.396-.9-.396-.352 0-.66.124-.924.372s-.428.612-.492 1.092z" class="L"/><path d="M75.08 283.968c0-8.56 6.94-15.5 15.5-15.5h240.516c8.56 0 15.5 6.94 15.5 15.5V285c0 8.56-6.94 15.5-15.5 15.5H90.58c-8.56 0-15.5-6.94-15.5-15.5v-1.032z" fill="#ffe5e4" stroke="#ff5f57"/><path d="M261.226 288.434c-.456 0-.868-.064-1.236-.192a2.41 2.41 0 0 1-.936-.636c-.256-.288-.456-.656-.6-1.104-.136-.456-.204-1.008-.204-1.656v-4.404h1.392v4.512c0 .424.036.784.108 1.08.08.288.188.52.324.696.144.176.312.304.504.384.192.072.408.108.648.108s.46-.036.66-.108a1.27 1.27 0 0 0 .516-.384c.144-.176.256-.408.336-.696.08-.296.12-.656.12-1.08v-4.512h1.332v4.404c0 .648-.068 1.2-.204 1.656-.136.448-.336.816-.6 1.104-.256.288-.568.5-.936.636a3.64 3.64 0 0 1-1.224.192zm4.804-.144v-5.892h1.14l.096.792h.048a4.77 4.77 0 0 1 .852-.66c.312-.184.672-.276 1.08-.276.632 0 1.092.204 1.38.612.288.4.432.976.432 1.728v3.696h-1.38v-3.516c0-.488-.072-.832-.216-1.032s-.38-.3-.708-.3a1.24 1.24 0 0 0-.684.192c-.192.12-.412.3-.66.54v4.116h-1.38zm6.715 2.328v-8.22h1.14l.096.624h.048c.248-.208.524-.388.828-.54s.62-.228.948-.228c.368 0 .692.072.972.216.288.136.532.336.732.6s.352.58.456.948.156.78.156 1.236c0 .504-.072.956-.216 1.356-.136.392-.32.724-.552.996-.232.264-.5.468-.804.612a2.19 2.19 0 0 1-.948.216c-.256 0-.512-.056-.768-.168a2.94 2.94 0 0 1-.744-.48l.036.984v1.848h-1.38zm2.568-3.324c.392 0 .72-.168.984-.504.264-.344.396-.852.396-1.524 0-.592-.1-1.052-.3-1.38s-.524-.492-.972-.492c-.416 0-.848.22-1.296.66v2.748c.216.184.424.312.624.384a1.67 1.67 0 0 0 .564.108zm4.205.996v-5.892h1.14l.096 1.044h.048c.208-.384.46-.676.756-.876.296-.208.6-.312.912-.312.28 0 .504.04.672.12l-.24 1.2a2.52 2.52 0 0 0-.288-.072 1.85 1.85 0 0 0-.324-.024c-.232 0-.476.092-.732.276-.256.176-.476.488-.66.936v3.6h-1.38zm6.77.144a2.79 2.79 0 0 1-1.056-.204 2.69 2.69 0 0 1-.9-.6 2.92 2.92 0 0 1-.612-.972c-.152-.384-.228-.82-.228-1.308s.076-.924.228-1.308a2.92 2.92 0 0 1 .612-.972 2.69 2.69 0 0 1 .9-.6c.336-.144.688-.216 1.056-.216s.72.072 1.056.216a2.54 2.54 0 0 1 .9.6 2.92 2.92 0 0 1 .612.972c.16.384.24.82.24 1.308s-.08.924-.24 1.308a2.92 2.92 0 0 1-.612.972 2.54 2.54 0 0 1-.9.6 2.79 2.79 0 0 1-1.056.204zm0-1.128a1.18 1.18 0 0 0 1.02-.528c.248-.36.372-.836.372-1.428 0-.6-.124-1.076-.372-1.428-.248-.36-.588-.54-1.02-.54s-.772.18-1.02.54c-.24.352-.36.828-.36 1.428 0 .592.12 1.068.36 1.428a1.18 1.18 0 0 0 1.02.528zm6.238 1.128c-.744 0-1.336-.268-1.776-.804-.432-.544-.648-1.304-.648-2.28 0-.48.068-.912.204-1.296.144-.384.332-.708.564-.972s.496-.468.792-.612c.304-.144.616-.216.936-.216.336 0 .62.06.852.18a3.22 3.22 0 0 1 .696.468l-.048-.948v-2.136h1.38v8.472h-1.14l-.096-.636h-.048a3.12 3.12 0 0 1-.756.552c-.288.152-.592.228-.912.228zm.336-1.14c.44 0 .852-.22 1.236-.66v-2.748c-.208-.184-.412-.312-.612-.384a1.66 1.66 0 0 0-.588-.108c-.384 0-.708.168-.972.504s-.396.816-.396 1.44c0 .64.112 1.128.336 1.464.232.328.564.492.996.492zm6.126 1.14c-.632 0-1.092-.2-1.38-.6-.288-.408-.432-.988-.432-1.74v-3.696h1.38v3.516c0 .488.072.832.216 1.032s.376.3.696.3c.256 0 .48-.064.672-.192.2-.128.412-.336.636-.624v-4.032h1.38v5.892h-1.128l-.108-.864h-.036c-.256.304-.536.548-.84.732-.296.184-.648.276-1.056.276zm7.376 0c-.4 0-.776-.068-1.128-.204a2.54 2.54 0 0 1-.9-.6c-.256-.264-.456-.588-.6-.972s-.216-.82-.216-1.308.08-.924.24-1.308.376-.708.648-.972a2.76 2.76 0 0 1 .936-.6 3.01 3.01 0 0 1 1.128-.216c.384 0 .712.064.984.192.28.128.528.284.744.468l-.672.9a2.04 2.04 0 0 0-.48-.312c-.152-.08-.32-.12-.504-.12-.48 0-.868.18-1.164.54-.296.352-.444.828-.444 1.428 0 .592.144 1.068.432 1.428a1.42 1.42 0 0 0 1.14.528c.232 0 .448-.048.648-.144.208-.104.396-.224.564-.36l.564.912a2.92 2.92 0 0 1-.924.54 2.88 2.88 0 0 1-.996.18zm5.04 0c-.344 0-.636-.052-.876-.156-.232-.104-.424-.248-.576-.432a2.02 2.02 0 0 1-.324-.672 3.72 3.72 0 0 1-.096-.876V283.5h-.84v-1.032l.912-.06.168-1.608h1.152v1.608h1.5v1.092h-1.5v2.808c0 .688.276 1.032.828 1.032.104 0 .208-.012.312-.036a1.47 1.47 0 0 0 .3-.096l.24 1.02c-.16.056-.344.104-.552.144-.2.048-.416.072-.648.072zm2.26-.144v-5.892h1.38v5.892h-1.38zm.696-6.924a.88.88 0 0 1-.612-.216c-.16-.144-.24-.332-.24-.564s.08-.42.24-.564c.16-.152.364-.228.612-.228s.452.076.612.228c.16.144.24.332.24.564s-.08.42-.24.564a.88.88 0 0 1-.612.216zm3.765 6.924l-2.052-5.892h1.404l.936 3.06.24.876.252.9h.048l.252-.9.252-.876.936-3.06h1.332l-2.004 5.892h-1.596zm7.07.144c-.408 0-.788-.068-1.14-.204a2.78 2.78 0 0 1-.924-.612c-.264-.264-.472-.584-.624-.96-.144-.384-.216-.82-.216-1.308 0-.48.076-.912.228-1.296a3.03 3.03 0 0 1 .6-.972c.256-.264.548-.468.876-.612s.664-.216 1.008-.216c.4 0 .752.068 1.056.204s.556.328.756.576a2.48 2.48 0 0 1 .468.888c.104.344.156.72.156 1.128a2.91 2.91 0 0 1-.024.384c-.008.12-.02.216-.036.288h-3.744c.064.528.248.936.552 1.224.312.28.708.42 1.188.42.256 0 .492-.036.708-.108a3.36 3.36 0 0 0 .66-.324l.468.864c-.28.184-.592.336-.936.456s-.704.18-1.08.18zm-1.572-3.648h2.616c0-.456-.1-.812-.3-1.068-.192-.264-.492-.396-.9-.396-.352 0-.66.124-.924.372s-.428.612-.492 1.092z" fill="#ff5f57"/><path d="M92.128 291.685c3.984 0 7.214-3.23 7.214-7.213s-3.23-7.214-7.214-7.214-7.214 3.23-7.214 7.214 3.23 7.213 7.214 7.213z" fill="#3c5a9a"/><path d="M94.473 279.472h-1.598c-.948 0-2.003.4-2.003 1.774v1.454h-1.097v1.745h1.13v5.026h2.078v-5.06h1.372l.124-1.717H92.95v-.986c0-.543.565-.512.6-.512h.926l-.001-1.725z" class="C"/><path d="M110.673 288.226v-7.848h4.74v1.176h-3.348v2.22h2.856v1.176h-2.856v3.276h-1.392zm6.992.144c-.52 0-.94-.156-1.26-.468-.32-.32-.48-.74-.48-1.26 0-.312.064-.588.192-.828.136-.248.344-.46.624-.636.288-.176.648-.324 1.08-.444.44-.12.964-.212 1.572-.276-.008-.152-.032-.296-.072-.432a.85.85 0 0 0-.18-.372.73.73 0 0 0-.324-.252 1.18 1.18 0 0 0-.504-.096c-.288 0-.572.056-.852.168-.272.112-.54.248-.804.408l-.504-.924c.328-.208.696-.388 1.104-.54a3.75 3.75 0 0 1 1.32-.228c.736 0 1.284.22 1.644.66.368.432.552 1.06.552 1.884v3.492h-1.14l-.096-.648h-.048c-.264.224-.548.412-.852.564-.296.152-.62.228-.972.228zm.444-1.08c.24 0 .456-.056.648-.168.2-.112.412-.272.636-.48v-1.32a6.3 6.3 0 0 0-1.008.192c-.272.08-.492.172-.66.276-.168.096-.288.208-.36.336a.82.82 0 0 0-.108.408c0 .264.08.456.24.576s.364.18.612.18zm6.776 1.08c-.4 0-.776-.068-1.128-.204a2.54 2.54 0 0 1-.9-.6c-.256-.264-.456-.588-.6-.972s-.216-.82-.216-1.308.08-.924.24-1.308.376-.708.648-.972a2.76 2.76 0 0 1 .936-.6 3.01 3.01 0 0 1 1.128-.216c.384 0 .712.064.984.192.28.128.528.284.744.468l-.672.9a2.04 2.04 0 0 0-.48-.312c-.152-.08-.32-.12-.504-.12-.48 0-.868.18-1.164.54-.296.352-.444.828-.444 1.428 0 .592.144 1.068.432 1.428a1.42 1.42 0 0 0 1.14.528c.232 0 .448-.048.648-.144.208-.104.396-.224.564-.36l.564.912a2.92 2.92 0 0 1-.924.54 2.88 2.88 0 0 1-.996.18zm5.3 0c-.408 0-.788-.068-1.14-.204a2.78 2.78 0 0 1-.924-.612c-.264-.264-.472-.584-.624-.96-.144-.384-.216-.82-.216-1.308 0-.48.076-.912.228-1.296a3.03 3.03 0 0 1 .6-.972c.256-.264.548-.468.876-.612s.664-.216 1.008-.216c.4 0 .752.068 1.056.204s.556.328.756.576a2.48 2.48 0 0 1 .468.888c.104.344.156.72.156 1.128a2.91 2.91 0 0 1-.024.384c-.008.12-.02.216-.036.288h-3.744c.064.528.248.936.552 1.224.312.28.708.42 1.188.42.256 0 .492-.036.708-.108a3.36 3.36 0 0 0 .66-.324l.468.864c-.28.184-.592.336-.936.456s-.704.18-1.08.18zm-1.572-3.648h2.616c0-.456-.1-.812-.3-1.068-.192-.264-.492-.396-.9-.396-.352 0-.66.124-.924.372s-.428.612-.492 1.092zm8 3.648a1.98 1.98 0 0 1-.828-.192 3.02 3.02 0 0 1-.78-.576h-.036l-.12.624h-1.092v-8.472h1.38v2.184l-.036.984a3.49 3.49 0 0 1 .804-.528c.296-.136.596-.204.9-.204a2.17 2.17 0 0 1 .984.216c.288.136.532.336.732.6a2.69 2.69 0 0 1 .456.936c.104.368.156.78.156 1.236 0 .504-.072.956-.216 1.356-.136.392-.32.724-.552.996s-.5.48-.804.624a2.19 2.19 0 0 1-.948.216zm-.288-1.14c.392 0 .72-.168.984-.504.264-.344.396-.852.396-1.524 0-.592-.1-1.052-.3-1.38s-.524-.492-.972-.492c-.416 0-.848.22-1.296.66v2.748c.208.184.412.312.612.384a1.77 1.77 0 0 0 .576.108zm6.605 1.14a2.79 2.79 0 0 1-1.056-.204 2.69 2.69 0 0 1-.9-.6 2.92 2.92 0 0 1-.612-.972c-.152-.384-.228-.82-.228-1.308s.076-.924.228-1.308a2.92 2.92 0 0 1 .612-.972 2.69 2.69 0 0 1 .9-.6c.336-.144.688-.216 1.056-.216s.72.072 1.056.216a2.54 2.54 0 0 1 .9.6 2.92 2.92 0 0 1 .612.972c.16.384.24.82.24 1.308s-.08.924-.24 1.308a2.92 2.92 0 0 1-.612.972 2.54 2.54 0 0 1-.9.6 2.79 2.79 0 0 1-1.056.204zm0-1.128a1.18 1.18 0 0 0 1.02-.528c.248-.36.372-.836.372-1.428 0-.6-.124-1.076-.372-1.428-.248-.36-.588-.54-1.02-.54s-.772.18-1.02.54c-.24.352-.36.828-.36 1.428 0 .592.12 1.068.36 1.428a1.18 1.18 0 0 0 1.02.528zm6.586 1.128a2.79 2.79 0 0 1-1.056-.204 2.69 2.69 0 0 1-.9-.6 2.92 2.92 0 0 1-.612-.972c-.152-.384-.228-.82-.228-1.308s.076-.924.228-1.308a2.92 2.92 0 0 1 .612-.972 2.69 2.69 0 0 1 .9-.6c.336-.144.688-.216 1.056-.216s.72.072 1.056.216a2.54 2.54 0 0 1 .9.6 2.92 2.92 0 0 1 .612.972c.16.384.24.82.24 1.308s-.08.924-.24 1.308a2.92 2.92 0 0 1-.612.972 2.54 2.54 0 0 1-.9.6 2.79 2.79 0 0 1-1.056.204zm0-1.128a1.18 1.18 0 0 0 1.02-.528c.248-.36.372-.836.372-1.428 0-.6-.124-1.076-.372-1.428-.248-.36-.588-.54-1.02-.54s-.772.18-1.02.54c-.24.352-.36.828-.36 1.428 0 .592.12 1.068.36 1.428a1.18 1.18 0 0 0 1.02.528zm4.174.984v-8.472h1.356v5.292h.036l2.184-2.712h1.512l-2.016 2.4 2.22 3.492h-1.5l-1.512-2.556-.924 1.056v1.5H153.7z" class="J"/><use xlink:href="#R" y="123.871" class="Q R"/><path d="M258.286 370.87v-7.848h2.472a5.65 5.65 0 0 1 1.2.12c.376.08.7.216.972.408s.484.444.636.756c.152.304.228.684.228 1.14 0 .432-.076.808-.228 1.128a2.24 2.24 0 0 1-.636.804c-.264.208-.58.364-.948.468-.36.096-.752.144-1.176.144h-1.128v2.88h-1.392zm1.392-3.996h1.02c1.152 0 1.728-.476 1.728-1.428 0-.496-.152-.836-.456-1.02-.296-.192-.736-.288-1.32-.288h-.972v2.736zm5.473 3.996v-5.892h1.14l.096 1.044h.048c.208-.384.46-.676.756-.876.296-.208.6-.312.912-.312.28 0 .504.04.672.12l-.24 1.2a2.52 2.52 0 0 0-.288-.072 1.85 1.85 0 0 0-.324-.024c-.232 0-.476.092-.732.276-.256.176-.476.488-.66.936v3.6h-1.38zm6.77.144a2.79 2.79 0 0 1-1.056-.204 2.69 2.69 0 0 1-.9-.6 2.92 2.92 0 0 1-.612-.972c-.152-.384-.228-.82-.228-1.308s.076-.924.228-1.308a2.92 2.92 0 0 1 .612-.972 2.69 2.69 0 0 1 .9-.6c.336-.144.688-.216 1.056-.216s.72.072 1.056.216a2.54 2.54 0 0 1 .9.6 2.92 2.92 0 0 1 .612.972c.16.384.24.82.24 1.308s-.08.924-.24 1.308a2.92 2.92 0 0 1-.612.972 2.54 2.54 0 0 1-.9.6 2.79 2.79 0 0 1-1.056.204zm0-1.128a1.18 1.18 0 0 0 1.02-.528c.248-.36.372-.836.372-1.428 0-.6-.124-1.076-.372-1.428-.248-.36-.588-.54-1.02-.54s-.772.18-1.02.54c-.24.352-.36.828-.36 1.428 0 .592.12 1.068.36 1.428a1.18 1.18 0 0 0 1.02.528zm6.238 1.128c-.744 0-1.336-.268-1.776-.804-.432-.544-.648-1.304-.648-2.28 0-.48.068-.912.204-1.296.144-.384.332-.708.564-.972s.496-.468.792-.612c.304-.144.616-.216.936-.216.336 0 .62.06.852.18a3.22 3.22 0 0 1 .696.468l-.048-.948V362.4h1.38v8.472h-1.14l-.096-.636h-.048a3.12 3.12 0 0 1-.756.552c-.288.152-.592.228-.912.228zm.336-1.14c.44 0 .852-.22 1.236-.66v-2.748c-.208-.184-.412-.312-.612-.384a1.66 1.66 0 0 0-.588-.108c-.384 0-.708.168-.972.504s-.396.816-.396 1.44c0 .64.112 1.128.336 1.464.232.328.564.492.996.492zm6.126 1.14c-.632 0-1.092-.2-1.38-.6-.288-.408-.432-.988-.432-1.74v-3.696h1.38v3.516c0 .488.072.832.216 1.032s.376.3.696.3c.256 0 .48-.064.672-.192.2-.128.412-.336.636-.624v-4.032h1.38v5.892h-1.128l-.108-.864h-.036c-.256.304-.536.548-.84.732-.296.184-.648.276-1.056.276zm7.375 0c-.4 0-.776-.068-1.128-.204a2.54 2.54 0 0 1-.9-.6c-.256-.264-.456-.588-.6-.972s-.216-.82-.216-1.308.08-.924.24-1.308.376-.708.648-.972a2.76 2.76 0 0 1 .936-.6 3.01 3.01 0 0 1 1.128-.216c.384 0 .712.064.984.192.28.128.528.284.744.468l-.672.9a2.04 2.04 0 0 0-.48-.312c-.152-.08-.32-.12-.504-.12-.48 0-.868.18-1.164.54-.296.352-.444.828-.444 1.428 0 .592.144 1.068.432 1.428a1.42 1.42 0 0 0 1.14.528c.232 0 .448-.048.648-.144.208-.104.396-.224.564-.36l.564.912a2.92 2.92 0 0 1-.924.54 2.88 2.88 0 0 1-.996.18zm5.042 0c-.344 0-.636-.052-.876-.156-.232-.104-.424-.248-.576-.432a2.02 2.02 0 0 1-.324-.672 3.72 3.72 0 0 1-.096-.876v-2.808h-.84v-1.032l.912-.06.168-1.608h1.152v1.608h1.5v1.092h-1.5v2.808c0 .688.276 1.032.828 1.032.104 0 .208-.012.312-.036a1.47 1.47 0 0 0 .3-.096l.24 1.02c-.16.056-.344.104-.552.144-.2.048-.416.072-.648.072zm2.26-.144v-5.892h1.38v5.892h-1.38zm.696-6.924a.88.88 0 0 1-.612-.216c-.16-.144-.24-.332-.24-.564s.08-.42.24-.564c.16-.152.364-.228.612-.228s.452.076.612.228c.16.144.24.332.24.564s-.08.42-.24.564a.88.88 0 0 1-.612.216zm3.765 6.924l-2.052-5.892h1.404l.936 3.06.24.876.252.9h.048l.252-.9.252-.876.936-3.06h1.332l-2.004 5.892h-1.596zm7.07.144c-.408 0-.788-.068-1.14-.204a2.78 2.78 0 0 1-.924-.612c-.264-.264-.472-.584-.624-.96-.144-.384-.216-.82-.216-1.308 0-.48.076-.912.228-1.296a3.03 3.03 0 0 1 .6-.972c.256-.264.548-.468.876-.612s.664-.216 1.008-.216c.4 0 .752.068 1.056.204s.556.328.756.576a2.48 2.48 0 0 1 .468.888c.104.344.156.72.156 1.128a2.91 2.91 0 0 1-.024.384c-.008.12-.02.216-.036.288h-3.744c.064.528.248.936.552 1.224.312.28.708.42 1.188.42.256 0 .492-.036.708-.108a3.36 3.36 0 0 0 .66-.324l.468.864c-.28.184-.592.336-.936.456s-.704.18-1.08.18zm-1.572-3.648h2.616c0-.456-.1-.812-.3-1.068-.192-.264-.492-.396-.9-.396-.352 0-.66.124-.924.372s-.428.612-.492 1.092z" class="L"/><path d="M94.272 360.728c-.22-.676-.946-1.046-1.622-.826a1.29 1.29 0 0 0-.826 1.622l3.328 10.238c.228.632.91.986 1.566.798.683-.197 1.1-.922.882-1.593l-3.327-10.24z" fill="#dfa22f"/><path d="M89.116 362.404a1.29 1.29 0 0 0-1.622-.827 1.29 1.29 0 0 0-.826 1.622l3.328 10.24c.228.63.91.986 1.566.797.683-.196 1.1-.922.88-1.593l-3.327-10.238z" fill="#3cb187"/><path d="M98.46 369.208a1.29 1.29 0 0 0 .826-1.622c-.22-.676-.946-1.046-1.622-.826l-10.238 3.328c-.632.228-.986.9-.798 1.565.197.683.922 1.1 1.593.88l10.24-3.326" fill="#ce1e5b"/><path d="M89.56 372.1l2.447-.795-.795-2.447-2.447.795.795 2.447" fill="#392538"/><path d="M94.717 370.424l2.447-.795-.795-2.448-2.447.796.795 2.447z" fill="#bb242a"/><path d="M96.786 364.052a1.29 1.29 0 0 0 .826-1.622c-.22-.676-.946-1.046-1.622-.826l-10.238 3.327a1.29 1.29 0 0 0-.798 1.566c.197.683.922 1.1 1.593.88l10.24-3.327" fill="#72c5cd"/><path d="M87.885 366.943l2.448-.795-.795-2.447-2.448.795.795 2.447z" fill="#248c73"/><path d="M93.04 365.268l2.448-.795-.795-2.448-2.448.795.795 2.448z" fill="#62803a"/><path d="M112.965 370.95a4.07 4.07 0 0 1-1.536-.3 4.01 4.01 0 0 1-1.296-.852l.816-.948a3.62 3.62 0 0 0 .96.648 2.64 2.64 0 0 0 1.08.24c.448 0 .788-.092 1.02-.276s.348-.428.348-.732a.81.81 0 0 0-.096-.408c-.056-.112-.14-.208-.252-.288-.104-.088-.232-.168-.384-.24l-.48-.216-1.08-.468a3.97 3.97 0 0 1-.576-.3c-.184-.12-.352-.264-.504-.432s-.276-.364-.372-.588c-.088-.224-.132-.48-.132-.768 0-.312.064-.6.192-.864a2.26 2.26 0 0 1 .552-.708c.232-.2.508-.356.828-.468.328-.112.684-.168 1.068-.168.456 0 .896.092 1.32.276a3.33 3.33 0 0 1 1.092.72l-.708.888c-.256-.208-.52-.372-.792-.492s-.576-.18-.912-.18c-.376 0-.676.084-.9.252-.224.16-.336.384-.336.672 0 .152.032.284.096.396.072.104.164.2.276.288.12.08.256.156.408.228l.468.192 1.068.444a3.68 3.68 0 0 1 .636.336 2.19 2.19 0 0 1 .492.444 1.85 1.85 0 0 1 .336.588c.08.216.12.468.12.756a2.14 2.14 0 0 1-.192.9c-.128.28-.316.528-.564.744-.24.208-.536.376-.888.504a3.56 3.56 0 0 1-1.176.18zm5.472 0c-.496 0-.844-.148-1.044-.444s-.3-.7-.3-1.212v-6.96h1.38v7.032c0 .168.032.288.096.36.064.064.132.096.204.096h.084c.032 0 .076-.008.132-.024l.18 1.032c-.184.08-.428.12-.732.12zm3.34 0c-.52 0-.94-.156-1.26-.468-.32-.32-.48-.74-.48-1.26 0-.312.064-.588.192-.828.136-.248.344-.46.624-.636.288-.176.648-.324 1.08-.444.44-.12.964-.212 1.572-.276-.008-.152-.032-.296-.072-.432a.85.85 0 0 0-.18-.372.73.73 0 0 0-.324-.252 1.18 1.18 0 0 0-.504-.096c-.288 0-.572.056-.852.168-.272.112-.54.248-.804.408l-.504-.924c.328-.208.696-.388 1.104-.54a3.75 3.75 0 0 1 1.32-.228c.736 0 1.284.22 1.644.66.368.432.552 1.06.552 1.884v3.492h-1.14l-.096-.648h-.048c-.264.224-.548.412-.852.564-.296.152-.62.228-.972.228zm.444-1.08c.24 0 .456-.056.648-.168.2-.112.412-.272.636-.48v-1.32a6.3 6.3 0 0 0-1.008.192c-.272.08-.492.172-.66.276-.168.096-.288.208-.36.336a.82.82 0 0 0-.108.408c0 .264.08.456.24.576s.364.18.612.18zm6.776 1.08c-.4 0-.776-.068-1.128-.204a2.54 2.54 0 0 1-.9-.6c-.256-.264-.456-.588-.6-.972s-.216-.82-.216-1.308.08-.924.24-1.308.376-.708.648-.972a2.76 2.76 0 0 1 .936-.6 3.01 3.01 0 0 1 1.128-.216c.384 0 .712.064.984.192.28.128.528.284.744.468l-.672.9a2.04 2.04 0 0 0-.48-.312c-.152-.08-.32-.12-.504-.12-.48 0-.868.18-1.164.54-.296.352-.444.828-.444 1.428 0 .592.144 1.068.432 1.428a1.42 1.42 0 0 0 1.14.528c.232 0 .448-.048.648-.144.208-.104.396-.224.564-.36l.564.912a2.92 2.92 0 0 1-.924.54 2.88 2.88 0 0 1-.996.18zm3.083-.144v-8.472h1.356v5.292h.036l2.184-2.712h1.512l-2.016 2.4 2.22 3.492h-1.5l-1.512-2.556-.924 1.056v1.5h-1.356z" class="J"/><use xlink:href="#Q" y="123.871" stroke="#718093" class="N"/><path d="M258.286 329.58v-7.848h1.428l2.448 4.416.804 1.668h.048l-.12-1.308-.06-1.368v-3.408h1.332v7.848h-1.428l-2.448-4.416-.804-1.668h-.048l.108 1.308c.048.456.072.904.072 1.344v3.432h-1.332zm10.275.144c-.408 0-.788-.068-1.14-.204a2.78 2.78 0 0 1-.924-.612c-.264-.264-.472-.584-.624-.96-.144-.384-.216-.82-.216-1.308 0-.48.076-.912.228-1.296a3.03 3.03 0 0 1 .6-.972c.256-.264.548-.468.876-.612s.664-.216 1.008-.216c.4 0 .752.068 1.056.204s.556.328.756.576a2.48 2.48 0 0 1 .468.888c.104.344.156.72.156 1.128a2.91 2.91 0 0 1-.024.384c-.008.12-.02.216-.036.288H267c.064.528.248.936.552 1.224.312.28.708.42 1.188.42.256 0 .492-.036.708-.108a3.36 3.36 0 0 0 .66-.324l.468.864c-.28.184-.592.336-.936.456s-.704.18-1.08.18zm-1.572-3.648h2.616c0-.456-.1-.812-.3-1.068-.192-.264-.492-.396-.9-.396-.352 0-.66.124-.924.372s-.428.612-.492 1.092zm6.886 3.648c-.632 0-1.092-.2-1.38-.6-.288-.408-.432-.988-.432-1.74v-3.696h1.38v3.516c0 .488.072.832.216 1.032s.376.3.696.3c.256 0 .48-.064.672-.192.2-.128.412-.336.636-.624v-4.032h1.38v5.892h-1.128l-.108-.864h-.036c-.256.304-.536.548-.84.732-.296.184-.648.276-1.056.276zm6.992 0c-.344 0-.636-.052-.876-.156-.232-.104-.424-.248-.576-.432a2.02 2.02 0 0 1-.324-.672 3.72 3.72 0 0 1-.096-.876v-2.808h-.84v-1.032l.912-.06.168-1.608h1.152v1.608h1.5v1.092h-1.5v2.808c0 .688.276 1.032.828 1.032.104 0 .208-.012.312-.036a1.47 1.47 0 0 0 .3-.096l.24 1.02c-.16.056-.344.104-.552.144-.2.048-.416.072-.648.072zm2.26-.144v-5.892h1.14l.096 1.044h.048c.208-.384.46-.676.756-.876.296-.208.6-.312.912-.312.28 0 .504.04.672.12l-.24 1.2a2.52 2.52 0 0 0-.288-.072 1.85 1.85 0 0 0-.324-.024c-.232 0-.476.092-.732.276-.256.176-.476.488-.66.936v3.6h-1.38zm5.588.144c-.52 0-.94-.156-1.26-.468-.32-.32-.48-.74-.48-1.26 0-.312.064-.588.192-.828.136-.248.344-.46.624-.636.288-.176.648-.324 1.08-.444.44-.12.964-.212 1.572-.276-.008-.152-.032-.296-.072-.432a.85.85 0 0 0-.18-.372.73.73 0 0 0-.324-.252 1.18 1.18 0 0 0-.504-.096c-.288 0-.572.056-.852.168-.272.112-.54.248-.804.408l-.504-.924c.328-.208.696-.388 1.104-.54a3.75 3.75 0 0 1 1.32-.228c.736 0 1.284.22 1.644.66.368.432.552 1.06.552 1.884v3.492h-1.14l-.096-.648h-.048c-.264.224-.548.412-.852.564-.296.152-.62.228-.972.228zm.444-1.08c.24 0 .456-.056.648-.168.2-.112.412-.272.636-.48v-1.32a6.3 6.3 0 0 0-1.008.192c-.272.08-.492.172-.66.276-.168.096-.288.208-.36.336a.82.82 0 0 0-.108.408c0 .264.08.456.24.576s.364.18.612.18zm5.66 1.08c-.496 0-.844-.148-1.044-.444s-.3-.7-.3-1.212v-6.96h1.38v7.032c0 .168.032.288.096.36.064.064.132.096.204.096h.084c.032 0 .076-.008.132-.024l.18 1.032c-.184.08-.428.12-.732.12z" class="M"/><path d="M86.053 331.452h12.152a1.15 1.15 0 0 0 1.15-1.15v-8.54a1.15 1.15 0 0 0-1.15-1.149H86.053a1.15 1.15 0 0 0-1.15 1.149v8.54a1.15 1.15 0 0 0 1.15 1.15z" class="K"/><path d="M92.786 331.452h5.42a1.15 1.15 0 0 0 1.15-1.15v-8.54a1.15 1.15 0 0 0-1.15-1.149H86.053a1.15 1.15 0 0 0-1.15 1.149l7.883 9.7z" fill="#d9d9d9"/><path d="M86.462 331.452h11.743a1.15 1.15 0 0 0 1.15-1.15v-8.375l-12.893 9.525z" fill="#eee"/><path d="M92.703 331.452h5.503a1.15 1.15 0 0 0 1.15-1.15v-8.375l-8.943 6.607 2.29 2.918z" class="K"/><path d="M98.205 321.27H86.053c-.635 0-1.15-.143-1.15.492v8.54a1.15 1.15 0 0 0 1.15 1.15h.493v-9.36h11.167v9.36h.493a1.15 1.15 0 0 0 1.15-1.15v-8.54c0-.635-.514-.492-1.15-.492z" fill="#ca3737"/><path d="M98.205 320.613H86.053a1.14 1.14 0 0 0-1.15 1.149c0 .397.5.742.5.742l6.727 4.762 6.727-4.762s.5-.345.5-.742a1.14 1.14 0 0 0-1.15-1.149z" fill="#f5f5f5"/><path d="M98.45 320.64l-6.32 4.407-6.32-4.407a1.14 1.14 0 0 0-.905 1.123c0 .396.5.74.5.74l6.727 4.763 6.727-4.763s.5-.345.5-.74a1.14 1.14 0 0 0-.904-1.123z" fill="#e84f4b"/><path d="M113.96 329.66c-.528 0-1.02-.088-1.476-.264-.448-.176-.84-.436-1.176-.78-.328-.344-.584-.768-.768-1.272s-.276-1.08-.276-1.728c0-.64.096-1.212.288-1.716.192-.512.452-.944.78-1.296a3.39 3.39 0 0 1 1.176-.804c.456-.184.944-.276 1.464-.276.56 0 1.032.104 1.416.312a3.6 3.6 0 0 1 .96.684l-.744.9c-.2-.192-.424-.352-.672-.48-.24-.136-.544-.204-.912-.204a2.22 2.22 0 0 0-.96.204c-.28.128-.524.316-.732.564-.2.24-.356.536-.468.888a3.91 3.91 0 0 0-.168 1.188c0 .896.2 1.6.6 2.112.408.504 1.008.756 1.8.756a2.35 2.35 0 0 0 .636-.084c.2-.064.364-.152.492-.264v-1.692h-1.488v-1.14h2.736v3.456c-.264.264-.616.488-1.056.672-.432.176-.916.264-1.452.264zm4.128-.144v-5.892h1.14l.096.804h.048a4.22 4.22 0 0 1 .804-.672c.296-.184.628-.276.996-.276.432 0 .776.092 1.032.276.264.184.464.444.6.78a4.74 4.74 0 0 1 .876-.756c.304-.2.644-.3 1.02-.3.624 0 1.084.204 1.38.612.296.4.444.976.444 1.728v3.696h-1.392V326c0-.488-.076-.832-.228-1.032-.144-.2-.368-.3-.672-.3-.368 0-.78.244-1.236.732v4.116h-1.38V326c0-.488-.076-.832-.228-1.032-.144-.2-.372-.3-.684-.3-.368 0-.78.244-1.236.732v4.116h-1.38zm11.54.144c-.52 0-.94-.156-1.26-.468-.32-.32-.48-.74-.48-1.26 0-.312.064-.588.192-.828.136-.248.344-.46.624-.636.288-.176.648-.324 1.08-.444.44-.12.964-.212 1.572-.276-.008-.152-.032-.296-.072-.432a.85.85 0 0 0-.18-.372.73.73 0 0 0-.324-.252 1.18 1.18 0 0 0-.504-.096c-.288 0-.572.056-.852.168-.272.112-.54.248-.804.408l-.504-.924c.328-.208.696-.388 1.104-.54a3.75 3.75 0 0 1 1.32-.228c.736 0 1.284.22 1.644.66.368.432.552 1.06.552 1.884v3.492h-1.14l-.096-.648h-.048c-.264.224-.548.412-.852.564-.296.152-.62.228-.972.228zm.444-1.08c.24 0 .456-.056.648-.168.2-.112.412-.272.636-.48v-1.32a6.3 6.3 0 0 0-1.008.192c-.272.08-.492.172-.66.276-.168.096-.288.208-.36.336a.82.82 0 0 0-.108.408c0 .264.08.456.24.576s.364.18.612.18zm4.315.936v-5.892h1.38v5.892h-1.38zm.696-6.924a.88.88 0 0 1-.612-.216c-.16-.144-.24-.332-.24-.564s.08-.42.24-.564c.16-.152.364-.228.612-.228s.452.076.612.228c.16.144.24.332.24.564s-.08.42-.24.564a.88.88 0 0 1-.612.216zm3.79 7.068c-.496 0-.844-.148-1.044-.444s-.3-.7-.3-1.212v-6.96h1.38v7.032c0 .168.032.288.096.36.064.064.132.096.204.096h.084c.032 0 .076-.008.132-.024l.18 1.032c-.184.08-.428.12-.732.12z" class="J"/><g filter="url(#I)" class="C D"><path d="M508.427 166.467c.78-1.266 2.622-1.266 3.404 0l3.395 5.5h-10.194l3.395-5.5zm143.87 8.23c.545 1.07.545 2.47.545 5.27v68.645c0 2.8 0 4.2-.545 5.27a5 5 0 0 1-2.185 2.185c-1.07.545-2.47.545-5.27.545H490.52c-2.8 0-4.2 0-5.27-.545a5 5 0 0 1-2.185-2.185c-.545-1.07-.545-2.47-.545-5.27v-68.645c0-2.8 0-4.2.545-5.27.48-.94 1.244-1.706 2.185-2.185 1.07-.545 2.47-.545 5.27-.545h154.322c2.8 0 4.2 0 5.27.545.94.48 1.706 1.244 2.185 2.185z"/></g><path d="M541.17 201.452l-1.82-9.156h1.666l.798 4.62.224 1.47.224 1.456h.056l.294-1.456.308-1.47 1.12-4.62h1.414l1.12 4.62.308 1.456.308 1.47h.056l.2-1.47.224-1.456.798-4.62h1.554l-1.75 9.156h-2.016l-1.134-4.816-.224-1.05-.182-1.064h-.056l-.2 1.064-.2 1.05-1.106 4.816h-1.974zm12.96.168c-.43 0-.84-.08-1.232-.238s-.742-.392-1.05-.7c-.3-.308-.537-.686-.714-1.134s-.266-.957-.266-1.526.09-1.078.266-1.526.415-.826.714-1.134a3.13 3.13 0 0 1 1.05-.7c.392-.168.803-.252 1.232-.252s.84.084 1.232.252a2.96 2.96 0 0 1 1.05.7c.3.308.537.686.714 1.134.187.448.28.956.28 1.526s-.093 1.078-.28 1.526c-.177.448-.415.826-.714 1.134s-.65.54-1.05.7c-.392.158-.803.238-1.232.238zm0-1.316a1.38 1.38 0 0 0 1.19-.616c.29-.42.434-.976.434-1.666 0-.7-.145-1.256-.434-1.666-.29-.42-.686-.63-1.2-.63s-.9.2-1.2.63c-.28.4-.42.966-.42 1.666 0 .7.14 1.246.42 1.666a1.38 1.38 0 0 0 1.19.616zm4.87 1.148v-6.874h1.33l.112 1.218h.056c.242-.448.536-.79.882-1.022.345-.243.7-.364 1.064-.364.326 0 .588.046.784.14l-.28 1.4c-.122-.038-.234-.066-.336-.084a2.13 2.13 0 0 0-.378-.028c-.27 0-.556.107-.854.322-.3.205-.556.57-.77 1.092v4.2H559zm7.494.168c-.868 0-1.56-.313-2.072-.938-.504-.635-.756-1.522-.756-2.66 0-.56.08-1.064.238-1.512a3.62 3.62 0 0 1 .658-1.134 2.92 2.92 0 0 1 .924-.714 2.52 2.52 0 0 1 1.092-.252c.392 0 .723.07.994.2a3.73 3.73 0 0 1 .812.546l-.056-1.106v-2.492h1.6v9.884h-1.33l-.112-.742h-.056c-.252.252-.546.466-.882.644s-.69.266-1.064.266zm.392-1.33c.513 0 .994-.257 1.442-.77v-3.206c-.243-.215-.48-.364-.714-.448a1.94 1.94 0 0 0-.686-.126c-.448 0-.826.196-1.134.588s-.462.952-.462 1.68c0 .746.13 1.316.392 1.708.27.382.658.574 1.162.574z" fill="#353b48"/><path d="M507.1 229.086a6.88 6.88 0 1 0 0 13.764c3.806 0 6.89-3.083 6.89-6.882s-3.083-6.882-6.89-6.882zm.007 12.387c-3.042 0-5.505-2.463-5.505-5.505s2.463-5.505 5.505-5.505 5.505 2.463 5.505 5.505-2.463 5.505-5.505 5.505zm.344-8.946h-1.032v4.13l3.613 2.168.516-.847-3.097-1.837v-3.613z" class="M"/><path d="M523.42 240.886c-.456 0-.868-.064-1.236-.192a2.41 2.41 0 0 1-.936-.636c-.256-.288-.456-.656-.6-1.104-.136-.456-.204-1.008-.204-1.656v-4.404h1.392v4.512c0 .424.036.784.108 1.08.08.288.188.52.324.696.144.176.312.304.504.384.192.072.408.108.648.108s.46-.036.66-.108a1.27 1.27 0 0 0 .516-.384c.144-.176.256-.408.336-.696.08-.296.12-.656.12-1.08v-4.512h1.332v4.404c0 .648-.068 1.2-.204 1.656-.136.448-.336.816-.6 1.104-.256.288-.568.5-.936.636a3.64 3.64 0 0 1-1.224.192zm6.377 0a3.39 3.39 0 0 1-1.212-.228c-.392-.16-.732-.356-1.02-.588l.648-.888c.264.208.524.372.78.492a2.16 2.16 0 0 0 .852.168c.32 0 .556-.064.708-.192a.66.66 0 0 0 .228-.516c0-.12-.036-.224-.108-.312a.99.99 0 0 0-.288-.252c-.12-.072-.256-.136-.408-.192l-.456-.192-.588-.252a2.5 2.5 0 0 1-.54-.348c-.152-.136-.28-.292-.384-.468-.096-.184-.144-.4-.144-.648 0-.52.192-.944.576-1.272s.908-.492 1.572-.492c.408 0 .776.072 1.104.216a4.11 4.11 0 0 1 .852.492l-.636.84c-.208-.152-.42-.272-.636-.36-.208-.096-.428-.144-.66-.144-.296 0-.516.064-.66.192a.58.58 0 0 0-.204.456c0 .12.032.224.096.312.072.08.164.152.276.216s.24.124.384.18l.468.168c.2.072.4.156.6.252a2.19 2.19 0 0 1 .54.336 1.44 1.44 0 0 1 .396.504c.104.192.156.424.156.696a1.69 1.69 0 0 1-.156.72c-.096.216-.24.408-.432.576-.192.16-.432.288-.72.384s-.616.144-.984.144zm6.044 0c-.408 0-.788-.068-1.14-.204a2.78 2.78 0 0 1-.924-.612c-.264-.264-.472-.584-.624-.96-.144-.384-.216-.82-.216-1.308 0-.48.076-.912.228-1.296a3.03 3.03 0 0 1 .6-.972c.256-.264.548-.468.876-.612s.664-.216 1.008-.216c.4 0 .752.068 1.056.204s.556.328.756.576a2.48 2.48 0 0 1 .468.888c.104.344.156.72.156 1.128a2.91 2.91 0 0 1-.024.384c-.008.12-.02.216-.036.288h-3.744c.064.528.248.936.552 1.224.312.28.708.42 1.188.42.256 0 .492-.036.708-.108a3.36 3.36 0 0 0 .66-.324l.468.864c-.28.184-.592.336-.936.456s-.704.18-1.08.18zm-1.572-3.648h2.616c0-.456-.1-.812-.3-1.068-.192-.264-.492-.396-.9-.396-.352 0-.66.124-.924.372s-.428.612-.492 1.092zm7.198 3.648c-.744 0-1.336-.268-1.776-.804-.432-.544-.648-1.304-.648-2.28 0-.48.068-.912.204-1.296.144-.384.332-.708.564-.972s.496-.468.792-.612c.304-.144.616-.216.936-.216.336 0 .62.06.852.18a3.22 3.22 0 0 1 .696.468l-.048-.948v-2.136h1.38v8.472h-1.14l-.096-.636h-.048a3.12 3.12 0 0 1-.756.552c-.288.152-.592.228-.912.228zm.336-1.14c.44 0 .852-.22 1.236-.66v-2.748c-.208-.184-.412-.312-.612-.384a1.66 1.66 0 0 0-.588-.108c-.384 0-.708.168-.972.504s-.396.816-.396 1.44c0 .64.112 1.128.336 1.464.232.328.564.492.996.492zm7.016.996v-4.8h-.792V234.9l.792-.06v-.612c0-.304.036-.584.108-.84a1.68 1.68 0 0 1 .348-.672 1.59 1.59 0 0 1 .6-.444c.248-.104.548-.156.9-.156.208 0 .404.02.588.06a2.81 2.81 0 0 1 .492.144l-.264 1.032c-.216-.096-.432-.144-.648-.144-.496 0-.744.332-.744.996v.636h1.152v1.092H550.2v4.8h-1.38zm5.863.144a2.79 2.79 0 0 1-1.056-.204 2.69 2.69 0 0 1-.9-.6 2.92 2.92 0 0 1-.612-.972c-.152-.384-.228-.82-.228-1.308s.076-.924.228-1.308a2.92 2.92 0 0 1 .612-.972 2.69 2.69 0 0 1 .9-.6c.336-.144.688-.216 1.056-.216s.72.072 1.056.216a2.54 2.54 0 0 1 .9.6 2.92 2.92 0 0 1 .612.972c.16.384.24.82.24 1.308s-.08.924-.24 1.308a2.92 2.92 0 0 1-.612.972 2.54 2.54 0 0 1-.9.6 2.79 2.79 0 0 1-1.056.204zm0-1.128a1.18 1.18 0 0 0 1.02-.528c.248-.36.372-.836.372-1.428 0-.6-.124-1.076-.372-1.428-.248-.36-.588-.54-1.02-.54s-.772.18-1.02.54c-.24.352-.36.828-.36 1.428 0 .592.12 1.068.36 1.428a1.18 1.18 0 0 0 1.02.528zm4.174.984v-5.892h1.14l.096 1.044h.048c.208-.384.46-.676.756-.876.296-.208.6-.312.912-.312.28 0 .504.04.672.12l-.24 1.2a2.52 2.52 0 0 0-.288-.072 1.85 1.85 0 0 0-.324-.024c-.232 0-.476.092-.732.276-.256.176-.476.488-.66.936v3.6h-1.38zm9.075.144c-.8 0-1.432-.34-1.896-1.02-.464-.688-.696-1.68-.696-2.976s.232-2.272.696-2.928a2.19 2.19 0 0 1 1.896-.996 2.19 2.19 0 0 1 1.896.996c.464.664.696 1.64.696 2.928 0 1.296-.232 2.288-.696 2.976-.464.68-1.096 1.02-1.896 1.02zm0-1.08c.184 0 .352-.048.504-.144.16-.104.296-.272.408-.504s.2-.532.264-.9.096-.824.096-1.368c0-.536-.032-.984-.096-1.344-.064-.368-.152-.664-.264-.888s-.248-.38-.408-.468c-.152-.096-.32-.144-.504-.144s-.356.048-.516.144c-.152.088-.284.244-.396.468s-.2.52-.264.888c-.064.36-.096.808-.096 1.344 0 .544.032 1 .096 1.368s.152.668.264.9.244.4.396.504c.16.096.332.144.516.144zm3.968.936v-1.128h1.704v-5.016H572.2v-.864a6.71 6.71 0 0 0 .984-.252c.28-.104.54-.228.78-.372h1.032v6.504h1.5v1.128H571.9zm6.92-3.96a.88.88 0 0 1-.648-.264c-.168-.176-.252-.4-.252-.672s.084-.496.252-.672a.88.88 0 0 1 .648-.264.84.84 0 0 1 .636.264c.168.176.252.4.252.672s-.084.496-.252.672a.84.84 0 0 1-.636.264zm0 4.104a.88.88 0 0 1-.648-.264c-.168-.176-.252-.4-.252-.672s.084-.496.252-.672a.88.88 0 0 1 .648-.264.84.84 0 0 1 .636.264c.168.176.252.4.252.672s-.084.496-.252.672a.84.84 0 0 1-.636.264zm5.236-.144v-1.968h-3.372v-.936l3.024-4.728h1.644v4.596h.96v1.068h-.96v1.968h-1.296zm-2.004-3.036h2.004v-1.728l.012-.792.048-.792h-.048l-.3.588-.324.6-1.392 2.124zm5.025 3.036v-.804l1.428-1.416 1.092-1.2c.304-.368.536-.712.696-1.032s.24-.624.24-.912c0-.408-.108-.728-.324-.96-.216-.24-.528-.36-.936-.36-.296 0-.568.084-.816.252a3.93 3.93 0 0 0-.672.6l-.768-.768c.352-.376.712-.664 1.08-.864.376-.208.828-.312 1.356-.312.368 0 .7.056.996.168s.548.272.756.48a2.01 2.01 0 0 1 .48.732c.12.288.18.608.18.96 0 .336-.076.68-.228 1.032-.144.344-.344.696-.6 1.056-.248.352-.54.716-.876 1.092l-1.068 1.164.648-.048.624-.036h1.872v1.176h-5.16zm8.974 0v-8.472h1.38v2.184l-.048 1.14c.248-.232.52-.436.816-.612.304-.184.66-.276 1.068-.276.632 0 1.092.204 1.38.612.288.4.432.976.432 1.728v3.696h-1.38v-3.516c0-.488-.072-.832-.216-1.032s-.38-.3-.708-.3a1.24 1.24 0 0 0-.684.192c-.192.12-.412.3-.66.54v4.116h-1.38z" class="M"/><path d="M617.048 198.355v-.938l1.666-1.652 1.274-1.4c.355-.43.625-.83.812-1.204s.28-.728.28-1.064c0-.476-.126-.85-.378-1.12-.252-.28-.616-.42-1.092-.42a1.66 1.66 0 0 0-.952.294c-.28.196-.54.43-.784.7l-.896-.896c.41-.44.83-.775 1.26-1.008.44-.243.966-.364 1.582-.364.43 0 .817.065 1.162.196s.64.317.882.56c.243.233.43.518.56.854.14.336.2.71.2 1.12 0 .392-.09.793-.266 1.204-.168.4-.4.812-.7 1.232-.29.41-.63.835-1.022 1.274l-1.246 1.358.756-.056.728-.042h2.184v1.372h-6.02zm10.832 0v-2.296h-3.934v-1.092l3.528-5.516h1.918v5.362h1.12v1.246h-1.12v2.296h-1.512zm-2.338-3.542h2.338v-2.016l.014-.924.056-.924h-.056l-.35.686-.378.7-1.624 2.478zm7.934.014c-.644 0-1.172-.252-1.582-.756-.402-.513-.602-1.232-.602-2.156s.2-1.633.602-2.128c.4-.504.938-.756 1.582-.756a1.91 1.91 0 0 1 1.568.756c.4.495.616 1.204.616 2.128s-.206 1.643-.616 2.156a1.91 1.91 0 0 1-1.568.756zm0-.938c.298 0 .54-.154.728-.462.196-.317.294-.82.294-1.512s-.098-1.185-.294-1.484c-.187-.308-.43-.462-.728-.462s-.546.154-.742.462c-.187.3-.28.793-.28 1.484s.093 1.195.28 1.512c.196.308.443.462.742.462zm.28 4.634l4.998-9.492h.98l-4.984 9.492h-.994zm6.286 0c-.644 0-1.172-.252-1.582-.756-.402-.513-.602-1.232-.602-2.156s.2-1.633.602-2.128c.4-.504.938-.756 1.582-.756a1.91 1.91 0 0 1 1.568.756c.4.495.616 1.204.616 2.128s-.206 1.643-.616 2.156a1.91 1.91 0 0 1-1.568.756zm0-.938c.298 0 .54-.154.728-.462.196-.317.294-.82.294-1.512s-.098-1.185-.294-1.484c-.187-.308-.43-.462-.728-.462s-.546.154-.742.462c-.187.3-.28.793-.28 1.484s.093 1.195.28 1.512c.196.308.443.462.742.462z" class="M"/><path d="M541.125 217v-7.848h2.472a5.65 5.65 0 0 1 1.2.12c.376.08.7.216.972.408s.484.444.636.756c.152.304.228.684.228 1.14 0 .432-.076.808-.228 1.128a2.24 2.24 0 0 1-.636.804c-.264.208-.58.364-.948.468-.36.096-.752.144-1.176.144h-1.128V217h-1.392zm1.392-3.996h1.02c1.152 0 1.728-.476 1.728-1.428 0-.496-.152-.836-.456-1.02-.296-.192-.736-.288-1.32-.288h-.972v2.736zM547.99 217v-5.892h1.14l.096 1.044h.048c.208-.384.46-.676.756-.876.296-.208.6-.312.912-.312.28 0 .504.04.672.12l-.24 1.2a2.52 2.52 0 0 0-.288-.072 1.85 1.85 0 0 0-.324-.024c-.232 0-.476.092-.732.276-.256.176-.476.488-.66.936v3.6h-1.38zm6.772.144a2.79 2.79 0 0 1-1.056-.204 2.69 2.69 0 0 1-.9-.6 2.92 2.92 0 0 1-.612-.972c-.152-.384-.228-.82-.228-1.308s.076-.924.228-1.308a2.92 2.92 0 0 1 .612-.972 2.69 2.69 0 0 1 .9-.6c.336-.144.688-.216 1.056-.216s.72.072 1.056.216a2.54 2.54 0 0 1 .9.6 2.92 2.92 0 0 1 .612.972c.16.384.24.82.24 1.308s-.08.924-.24 1.308a2.92 2.92 0 0 1-.612.972 2.54 2.54 0 0 1-.9.6 2.79 2.79 0 0 1-1.056.204zm0-1.128a1.18 1.18 0 0 0 1.02-.528c.248-.36.372-.836.372-1.428 0-.6-.124-1.076-.372-1.428-.248-.36-.588-.54-1.02-.54s-.772.18-1.02.54c-.24.352-.36.828-.36 1.428 0 .592.12 1.068.36 1.428a1.18 1.18 0 0 0 1.02.528zm6.238 1.128c-.744 0-1.336-.268-1.776-.804-.432-.544-.648-1.304-.648-2.28 0-.48.068-.912.204-1.296.144-.384.332-.708.564-.972s.496-.468.792-.612c.304-.144.616-.216.936-.216.336 0 .62.06.852.18a3.22 3.22 0 0 1 .696.468l-.048-.948v-2.136h1.38V217h-1.14l-.096-.636h-.048a3.12 3.12 0 0 1-.756.552c-.288.152-.592.228-.912.228zm.336-1.14c.44 0 .852-.22 1.236-.66v-2.748c-.208-.184-.412-.312-.612-.384a1.66 1.66 0 0 0-.588-.108c-.384 0-.708.168-.972.504s-.396.816-.396 1.44c0 .64.112 1.128.336 1.464.232.328.564.492.996.492zm6.125 1.14c-.632 0-1.092-.2-1.38-.6-.288-.408-.432-.988-.432-1.74v-3.696h1.38v3.516c0 .488.072.832.216 1.032s.376.3.696.3c.256 0 .48-.064.672-.192.2-.128.412-.336.636-.624v-4.032h1.38V217H569.5l-.108-.864h-.036c-.256.304-.536.548-.84.732-.296.184-.648.276-1.056.276zm7.376 0c-.4 0-.776-.068-1.128-.204a2.54 2.54 0 0 1-.9-.6c-.256-.264-.456-.588-.6-.972s-.216-.82-.216-1.308.08-.924.24-1.308.376-.708.648-.972a2.76 2.76 0 0 1 .936-.6 3.01 3.01 0 0 1 1.128-.216c.384 0 .712.064.984.192.28.128.528.284.744.468l-.672.9a2.04 2.04 0 0 0-.48-.312c-.152-.08-.32-.12-.504-.12-.48 0-.868.18-1.164.54-.296.352-.444.828-.444 1.428 0 .592.144 1.068.432 1.428a1.42 1.42 0 0 0 1.14.528c.232 0 .448-.048.648-.144.208-.104.396-.224.564-.36l.564.912a2.92 2.92 0 0 1-.924.54 2.88 2.88 0 0 1-.996.18zm5.042 0c-.344 0-.636-.052-.876-.156-.232-.104-.424-.248-.576-.432a2.02 2.02 0 0 1-.324-.672 3.72 3.72 0 0 1-.096-.876V212.2h-.84v-1.032l.912-.06.168-1.608h1.152v1.608h1.5v1.092h-1.5v2.808c0 .688.276 1.032.828 1.032.104 0 .208-.012.312-.036a1.47 1.47 0 0 0 .3-.096l.24 1.02c-.16.056-.344.104-.552.144-.2.048-.416.072-.648.072zm2.26-.144v-5.892h1.38V217h-1.38zm.696-6.924a.88.88 0 0 1-.612-.216c-.16-.144-.24-.332-.24-.564s.08-.42.24-.564c.16-.152.364-.228.612-.228s.452.076.612.228c.16.144.24.332.24.564s-.08.42-.24.564a.88.88 0 0 1-.612.216zm3.764 6.924l-2.052-5.892h1.404l.936 3.06.24.876.252.9h.048l.252-.9.252-.876.936-3.06h1.332L588.194 217h-1.596zm7.072.144c-.408 0-.788-.068-1.14-.204a2.78 2.78 0 0 1-.924-.612c-.264-.264-.472-.584-.624-.96-.144-.384-.216-.82-.216-1.308 0-.48.076-.912.228-1.296a3.03 3.03 0 0 1 .6-.972c.256-.264.548-.468.876-.612s.664-.216 1.008-.216c.4 0 .752.068 1.056.204s.556.328.756.576a2.48 2.48 0 0 1 .468.888c.104.344.156.72.156 1.128a2.91 2.91 0 0 1-.024.384c-.008.12-.02.216-.036.288H592.1c.064.528.248.936.552 1.224.312.28.708.42 1.188.42.256 0 .492-.036.708-.108a3.36 3.36 0 0 0 .66-.324l.468.864c-.28.184-.592.336-.936.456s-.704.18-1.08.18zm-1.572-3.648h2.616c0-.456-.1-.812-.3-1.068-.192-.264-.492-.396-.9-.396-.352 0-.66.124-.924.372s-.428.612-.492 1.092z" class="L"/><path d="M513.945 188.484h1.963v2.69l10.534.02c.748-.078 1.336.517 1.267 1.284l.033 19.865c-.033.68.066 1.432-.32 2.034-.48.35-1.1.306-1.658.333l-9.857-.01v2.69h-2.052l-15.016-2.69v-23.52l15.105-2.695z" class="D P"/><path d="M515.905 192.18h10.835v21.5h-10.835V211h8.537v-1.344h-8.537v-1.68h8.537v-1.344h-8.537v-1.68h8.537v-1.345h-8.537v-1.68h8.537v-1.344h-8.537v-1.68h8.537v-1.344h-8.537v-1.68h8.537v-1.344h-8.537v-2.353z" class="C D"/><path d="M505.62 198.12l1.872-.097 1.356 6.792 1.18-6.987 1.967-.1-2.204 9.776c-.548.293-1.37-.013-2.02.034l-1.336-6.67-1.324 6.48-1.898-.118-1.694-8.86 1.688-.07 1.018 6.416 1.395-6.594z" class="C D"/></g><defs><filter id="G" x="0" y="0" width="738" height="468.581" filterUnits="userSpaceOnUse" class="S"><feFlood result="A" class="T"/><feColorMatrix in="SourceAlpha" values="0 0 0 0 0 0 0 0 0 0 0 0 0 0 0 0 0 0 127 0"/><feOffset dx="-7" dy="4"/><feGaussianBlur stdDeviation="24.5"/><feColorMatrix values="0 0 0 0 0 0 0 0 0 0 0 0 0 0 0 0 0 0 0.09 0"/><feBlend in2="A"/><feBlend in="SourceGraphic"/></filter><filter id="H" x="40" y="103.323" width="355" height="338.258" filterUnits="userSpaceOnUse" class="S"><feFlood result="A" class="T"/><feColorMatrix in="SourceAlpha" values="0 0 0 0 0 0 0 0 0 0 0 0 0 0 0 0 0 0 127 0"/><feOffset dx="5" dy="5"/><feGaussianBlur stdDeviation="10.5"/><feColorMatrix values="0 0 0 0 0 0 0 0 0 0 0 0 0 0 0 0 0 0 0.03 0"/><feBlend in2="A"/><feBlend in="SourceGraphic"/></filter><filter id="I" x="473.521" y="159.517" width="188.323" height="109.095" filterUnits="userSpaceOnUse" class="S"><feFlood result="A" class="T"/><feColorMatrix in="SourceAlpha" values="0 0 0 0 0 0 0 0 0 0 0 0 0 0 0 0 0 0 127 0"/><feOffset dy="3"/><feGaussianBlur stdDeviation="4.5"/><feColorMatrix values="0 0 0 0 0.207843 0 0 0 0 0.231373 0 0 0 0 0.282353 0 0 0 0.25 0"/><feBlend in2="A"/><feBlend in="SourceGraphic"/></filter><path id="J" d="M368.005 71.552c.818 0 1.733-.287 2.44-.766l-.68-1.217c-.5.3-.97.45-1.484.45-.915 0-1.61-.45-1.79-1.436h4.118c.042-.164.084-.533.084-.89 0-1.846-.97-3.254-2.926-3.254-1.65 0-3.245 1.354-3.245 3.555 0 2.242 1.512 3.555 3.48 3.555zm-1.526-4.293c.14-.86.694-1.285 1.33-1.285.82 0 1.15.533 1.15 1.285h-2.482z"/><path id="K" d="M558.06 206.022c1.84 14.58-.246 29.385-6.04 42.89a82.58 82.58 0 0 1-26.917 33.933c-11.832 8.715-25.775 14.115-40.4 15.643s-29.373-.873-42.75-6.952l34.166-75.18 81.93-10.332z"/><path id="L" d="M558.708 216.354a82.58 82.58 0 0 1-9.657 38.752c-6.34 11.932-15.513 22.126-26.712 29.688l-46.21-68.44h82.58z"/><path id="M" d="M403.16 255.018a82.57 82.57 0 0 1-1.854-73.605c5.406-11.576 13.424-21.74 23.423-29.692a82.58 82.58 0 0 1 34.204-16.136c12.496-2.66 25.44-2.386 37.8.803s23.835 9.206 33.487 17.576a82.57 82.57 0 0 1 22.14 30.661 82.58 82.58 0 0 1 6.15 37.315l-82.39-5.586-72.97 38.664z"/><path id="N" d="M403.16 255.018c-9.338-17.624-11.982-38.03-7.445-57.452a82.58 82.58 0 0 1 88.024-63.441c19.86 1.838 38.382 10.8 52.148 25.233l-59.758 56.996-72.97 38.664z"/><path id="O" d="M403.16 255.018a82.57 82.57 0 0 1-9.463-33.732 82.58 82.58 0 0 1 5.373-34.619 82.59 82.59 0 0 1 19.242-29.276c8.434-8.27 18.545-14.635 29.648-18.664l28.17 77.627-72.97 38.664z"/><path id="P" d="M546.034 113.774l-1.56-7.848h1.428l.684 3.96.192 1.26.192 1.248h.048l.252-1.248.264-1.26.96-3.96h1.212l.96 3.96.264 1.248.264 1.26h.048l.18-1.26.192-1.248.684-3.96h1.332l-1.5 7.848h-1.728l-.972-4.128-.192-.9-.156-.912h-.048l-.18.912-.18.9-.948 4.128h-1.692zm11.1.144a2.79 2.79 0 0 1-1.056-.204 2.69 2.69 0 0 1-.9-.6 2.92 2.92 0 0 1-.612-.972c-.152-.384-.228-.82-.228-1.308s.076-.924.228-1.308a2.92 2.92 0 0 1 .612-.972 2.69 2.69 0 0 1 .9-.6c.336-.144.688-.216 1.056-.216s.72.072 1.056.216a2.54 2.54 0 0 1 .9.6 2.92 2.92 0 0 1 .612.972c.16.384.24.82.24 1.308s-.08.924-.24 1.308a2.92 2.92 0 0 1-.612.972 2.54 2.54 0 0 1-.9.6 2.79 2.79 0 0 1-1.056.204zm0-1.128a1.18 1.18 0 0 0 1.02-.528c.248-.36.372-.836.372-1.428 0-.6-.124-1.076-.372-1.428-.248-.36-.588-.54-1.02-.54s-.772.18-1.02.54c-.24.352-.36.828-.36 1.428 0 .592.12 1.068.36 1.428a1.18 1.18 0 0 0 1.02.528zm4.174.984v-5.892h1.14l.096 1.044h.048c.208-.384.46-.676.756-.876.296-.208.6-.312.912-.312.28 0 .504.04.672.12l-.24 1.2a2.52 2.52 0 0 0-.288-.072 1.85 1.85 0 0 0-.324-.024c-.232 0-.476.092-.732.276-.256.176-.476.488-.66.936v3.6h-1.38zm6.423.144c-.744 0-1.336-.268-1.776-.804-.432-.544-.648-1.304-.648-2.28 0-.48.068-.912.204-1.296.144-.384.332-.708.564-.972s.496-.468.792-.612c.304-.144.616-.216.936-.216.336 0 .62.06.852.18a3.22 3.22 0 0 1 .696.468l-.048-.948v-2.136h1.38v8.472h-1.14l-.096-.636h-.048a3.12 3.12 0 0 1-.756.552c-.288.152-.592.228-.912.228zm.336-1.14c.44 0 .852-.22 1.236-.66v-2.748c-.208-.184-.412-.312-.612-.384a1.66 1.66 0 0 0-.588-.108c-.384 0-.708.168-.972.504s-.396.816-.396 1.44c0 .64.112 1.128.336 1.464.232.328.564.492.996.492z"/><path id="Q" d="M75.08 201.387c0-8.56 6.94-15.5 15.5-15.5h240.516c8.56 0 15.5 6.94 15.5 15.5v1.032c0 8.56-6.94 15.5-15.5 15.5H90.58c-8.56 0-15.5-6.94-15.5-15.5v-1.032z"/><path id="R" d="M75.08 242.677c0-8.56 6.94-15.5 15.5-15.5h240.516c8.56 0 15.5 6.94 15.5 15.5v1.033c0 8.56-6.94 15.5-15.5 15.5H90.58c-8.56 0-15.5-6.94-15.5-15.5v-1.033z"/></defs></svg>